<?xml version="1.0" encoding="UTF-8"?>
<svg width="292px" height="290px" viewBox="0 0 292 290" version="1.1" xmlns="http://www.w3.org/2000/svg" xmlns:xlink="http://www.w3.org/1999/xlink">
    <title>Group 15</title>
    <g id="Page-1" stroke="none" stroke-width="1" fill="none" fill-rule="evenodd">
        <g id="Group-15" transform="translate(0.7711, 0.06)" fill-rule="nonzero">
            <path d="M172.439884,97.1900019 C157.002384,96.5610959 142.658634,90.7017209 131.060977,80.4907829 C117.654727,68.6900019 110.03754,51.4204709 96.7406654,39.4907829 C86.6898844,30.4595329 73.5805084,24.9087519 60.1078524,23.9595329 C86.0922274,12.8618769 113.10004,1.67828288 141.35004,2.22906388 C163.236758,2.65093988 185.314884,10.6509399 200.803165,26.1196899 C211.158634,36.4595329 218.22504,50.1900019 220.385196,64.6782829 C221.185977,70.0689079 222.744571,80.0103139 219.639102,84.9282829 C216.697696,89.5806269 208.279727,92.2485959 203.463321,93.7993769 C196.408634,96.0806269 182.166446,97.5884399 172.439884,97.1900019" id="Path" fill="#8CC63F"></path>
            <path d="M68.3148844,22.8618769 C79.3773844,25.1001579 89.7758214,30.2798459 98.2133214,37.8501579 C104.963321,43.9087521 110.307071,51.3384399 115.47504,58.5181269 C120.615665,65.6587519 125.928165,73.0415639 132.514102,78.8384399 C143.822696,88.7993769 157.658634,94.3814079 172.529727,94.9907829 C182.174258,95.3892209 196.029727,93.8814079 202.78754,91.7095329 L202.94379,91.6587519 C207.260196,90.2681269 215.295352,87.6782829 217.775821,83.7485959 C220.389102,79.6196899 218.998477,70.3110959 218.252384,65.3110959 L218.205508,64.9985959 C216.13129,51.0689079 209.396915,37.8110959 199.248477,27.6782829 C184.88129,13.3306269 163.760196,4.86187688 141.307071,4.42828288 C115.560977,3.92047088 90.7211344,13.4009399 68.3148844,22.8618769 Z M175.709415,99.4517209 C174.545352,99.4517209 173.424258,99.4282829 172.35004,99.3892209 C156.459415,98.7407829 141.678165,92.7681269 129.607852,82.1509399 C122.643008,76.0181269 117.182071,68.4282829 111.904727,61.0884399 C106.873477,54.1001579 101.670352,46.8696899 95.2719154,41.1314079 C85.5414464,32.3892209 72.9945714,27.0689079 59.9516024,26.1509399 L50.8617584,25.5103139 L59.2406654,21.9282829 C83.9125404,11.4009399 111.896915,-0.528748119 141.393008,0.0181268806 C164.971134,0.479063881 187.19379,9.42047088 202.357852,24.5610959 C213.174258,35.3618769 220.346134,49.4907829 222.560977,64.3501579 L222.607852,64.6587519 C223.494571,70.6196899 224.982852,80.5884399 221.498477,86.1118769 C218.16254,91.3814079 209.482852,94.1782829 204.291446,95.8501579 L204.135196,95.9009399 C197.736758,97.9595329 185.439884,99.4517209 175.709415,99.4517209" id="Shape" fill="#000000"></path>
            <path d="M218.264102,87.1392209 C213.271915,83.6118769 208.709415,79.7681269 204.189884,75.8618769 C199.682071,71.9517209 195.271915,67.9595329 190.873477,63.9712519 C186.471134,59.9790639 182.107852,55.9517209 177.66254,52.0610959 C176.549258,51.0884399 175.428165,50.1392209 174.299258,49.2017209 C173.16254,48.2993769 172.00629,47.4204709 170.799258,46.6001579 C168.385196,44.9517209 165.88129,43.4009399 163.322696,41.9282829 C158.201602,39.0103139 152.920352,36.3306269 147.541446,33.8618769 C142.166446,31.3892209 136.705508,29.0806269 131.092227,27.2485959 C125.471134,25.4400019 119.685977,24.0884399 113.81879,23.3110959 C107.955508,22.5415639 101.982852,22.2993769 96.0922274,23.1118769 C101.955508,22.1314079 107.963321,22.1782829 113.88129,22.7798459 C119.803165,23.4009399 125.670352,24.5806269 131.400821,26.2485959 C137.135196,27.9282829 142.689884,30.1118769 148.170352,32.4400019 C153.650821,34.7798459 159.045352,37.3306269 164.314884,40.1509399 C166.951602,41.5610959 169.541446,43.0610959 172.072696,44.7017209 C174.623477,46.3189079 177.018008,48.2212519 179.314884,50.1001579 C183.935977,53.8696899 188.435977,57.7485959 192.971134,61.5806269 C197.494571,65.4204709 202.029727,69.2407829 206.623477,72.9595329 C211.217227,76.6587519 215.88129,80.3110959 220.705508,83.4712519 L218.264102,87.1392209" id="Path" fill="#000000"></path>
            <path d="M205.47504,51.3189079 C201.400821,55.4009399 195.728946,55.7212519 191.810977,55.3110959 C152.451602,39.9790639 98.1820714,54.7407829 57.4711344,95.4517209 C16.7601964,136.170471 1.99847743,190.428283 17.3305084,229.791564 C17.7367584,233.709533 17.4164464,239.381408 13.3383214,243.459533 C6.50238443,250.299377 0.650821429,257.529846 7.75238443,264.631408 C14.8539464,271.729064 16.4242584,273.299377 16.4242584,273.299377 C16.4242584,273.299377 17.9945714,274.86969 25.0961344,281.979064 C32.1976964,289.080627 39.4320714,283.229064 46.2719154,276.389221 C50.3461344,272.311096 56.0141024,271.990783 59.9320714,272.40094 C99.2953524,287.729064 153.560977,272.971252 194.271915,232.260314 C234.982852,191.541564 249.744571,137.279846 234.416446,97.9204709 C234.010196,93.9985959 234.330508,88.3306269 238.404727,84.2485959 C245.244571,77.4087519 251.096134,70.1782829 243.994571,63.0806269 C236.893008,55.9790639 235.31879,54.4087519 235.31879,54.4087519 C235.31879,54.4087519 233.748477,52.8384399 226.646915,45.7290639 C219.545352,38.6314079 212.314884,44.4790639 205.47504,51.3189079" id="Path" fill="#F4DC00"></path>
            <path d="M158.451602,53.8189079 C125.721134,53.8189079 89.4398844,69.8696899 60.6664464,98.6509399 C22.1117584,137.201721 6.38519643,189.248596 21.5375404,228.15094 C21.6820714,228.529846 21.7797274,228.928283 21.8187904,229.330627 C22.5609774,236.459533 20.7328524,242.451721 16.5336344,246.65094 C13.7094154,249.471252 10.6703524,252.748596 9.50629043,255.631408 C8.73285243,257.549377 8.70550843,259.201721 10.9437904,261.440002 L28.2914464,278.779846 C30.9828524,281.479064 33.6195714,282.65094 43.0766024,273.190002 C47.2758214,268.998596 53.2680084,267.170471 60.4008214,267.908752 C60.8031654,267.951721 61.1976964,268.041564 61.5726964,268.190002 C100.478946,283.33844 152.525821,267.61969 191.080508,229.061096 C229.635196,190.510314 245.357852,138.459533 230.209415,99.5610959 C230.060977,99.1782829 229.967227,98.7798459 229.924258,98.3814079 C229.185977,91.2485959 231.014102,85.2603139 235.209415,81.0610959 C238.033634,78.2407829 241.076602,74.9595329 242.236758,72.0806269 C243.010196,70.1587519 243.041446,68.5103139 240.799258,66.2681269 L223.455508,48.9282829 C221.213321,46.6900019 219.572696,46.7212519 217.650821,47.4907829 C214.764102,48.6509399 211.490665,51.6900019 208.666446,54.5181269 C204.467227,58.7095329 198.47504,60.5415639 191.346134,59.7993769 C190.94379,59.7603139 190.549258,59.6704709 190.170352,59.5181269 C180.299258,55.6782829 169.580508,53.8189079 158.451602,53.8189079 Z M31.8344154,289.740783 C28.6000404,289.740783 25.2250404,288.490783 21.9047274,285.170471 L4.55707143,267.818908 C0.0375404295,263.299377 -1.14995957,257.920471 1.12738443,252.260314 C2.89300843,247.881408 6.50629043,243.90094 10.1469154,240.260314 C12.7680084,237.639221 13.1156654,233.791564 12.8891024,230.830627 C-3.15386557,188.709533 13.4242584,133.11969 54.2797274,92.2603139 C95.1312904,51.4087519 150.72504,34.8306269 192.846134,50.8696899 C195.810977,51.1001579 199.66254,50.7485959 202.279727,48.1314079 C205.920352,44.4907829 209.893008,40.8814079 214.275821,39.1118769 C219.935977,36.8306269 225.31879,38.0181269 229.842227,42.5415639 L247.185977,59.8892209 C251.709415,64.4087519 252.893008,69.7915639 250.615665,75.4517209 C248.85004,79.8306269 245.240665,83.8110959 241.596134,87.4517209 C238.978946,90.0689079 238.63129,93.9204709 238.857852,96.8814079 C254.896915,138.998596 238.31879,194.58844 197.467227,235.451721 C166.998477,265.920471 128.322696,282.881408 93.1625404,282.889221 C81.1742584,282.889221 69.6078524,280.920471 58.9008214,276.83844 C55.9359774,276.611877 52.0844154,276.959533 49.4633214,279.580627 C46.0023844,283.041564 39.2992584,289.740783 31.8344154,289.740783" id="Shape" fill="#000000"></path>
            <path d="M213.236758,147.158752 C213.533634,145.568908 215.877384,145.779846 215.869591,147.40094 C215.869591,147.440002 215.869591,147.490783 215.869591,147.529846 C215.838321,151.86969 215.424258,156.221252 214.72504,160.529846 C213.307071,169.139221 210.740665,177.61969 206.963321,185.65094 C205.115665,189.58844 203.10004,193.471252 200.88129,197.240783 L200.053165,198.658752 L199.19379,200.061096 C198.611758,200.990783 198.064884,201.940002 197.439884,202.850158 C196.826602,203.760314 196.228946,204.678283 195.603946,205.58844 L193.705508,208.279846 C188.518008,215.40094 182.580508,222.041564 175.900821,227.881408 C175.084415,228.631408 174.209415,229.318908 173.361758,230.029846 L172.076602,231.080627 L170.75629,232.100158 C169.873477,232.779846 169.014102,233.459533 168.088321,234.111877 L166.717227,235.100158 C166.260196,235.428283 165.78754,235.729064 165.322696,236.041564 C161.572696,238.518127 157.658634,240.721252 153.623477,242.61969 C149.580508,244.498596 145.44379,246.15094 141.209415,247.451721 C139.096134,248.111877 136.97504,248.721252 134.834415,249.260314 C133.764102,249.518127 132.69379,249.779846 131.615665,249.998596 L130.002384,250.350158 L128.38129,250.658752 C119.740665,252.268127 111.002384,252.90094 102.35004,252.729064 C98.0219154,252.631408 93.7172274,252.361877 89.4359774,251.90094 C89.2250404,251.881408 89.0101964,251.861877 88.7992584,251.83844 C87.1976964,251.658752 87.2406654,249.318908 88.8461344,249.190002 C89.0531654,249.178283 89.2641024,249.158752 89.4750404,249.15094 C93.7094154,248.799377 97.9203524,248.40094 102.10004,247.86969 C110.451602,246.818908 118.682071,245.318908 126.635196,243.100158 C134.580508,240.861877 142.303165,238.010314 149.494571,234.240783 C153.096134,232.381408 156.572696,230.311096 159.873477,228.010314 C163.170352,225.760314 166.365665,223.158752 169.447696,220.490783 C170.209415,219.818908 170.986758,219.15094 171.736758,218.459533 L173.971134,216.36969 C175.428165,214.940002 176.869571,213.490783 178.279727,211.998596 C181.107852,209.041564 183.75629,205.908752 186.338321,202.701721 C191.424258,196.240783 196.060977,189.350158 200.232852,182.131408 C204.373477,175.068908 207.639102,167.408752 210.143008,159.451721 C211.400821,155.428283 212.451602,151.33844 213.236758,147.158752" id="Path" fill="#B7A500"></path>
            <path d="M90.9125404,127.83844 C56.5492584,162.201721 49.3539464,210.721252 45.0570714,206.420471 C24.0297274,185.389221 34.8383214,140.490783 69.2016024,106.131408 C103.560977,71.7681269 148.463321,60.9595329 169.494571,81.9790639 C171.951602,84.4400019 125.271915,93.4790639 90.9125404,127.83844" id="Path" fill="#F8EA66"></path>
            <path d="M45.6625404,192.518127 C45.2523844,193.600158 43.7367584,193.61969 43.2992584,192.549377 C40.0141024,184.518127 39.6820714,174.299377 42.4633214,162.740783 C46.7562904,144.908752 57.8305084,126.381408 73.6430084,110.568908 C94.0219154,90.1900019 119.654727,77.5298459 140.53754,77.5298459 C145.486758,77.5298459 150.029727,78.2485959 154.060977,79.6587519 C155.170352,80.0493769 155.189884,81.6196899 154.092227,82.0415639 C137.682071,88.3384399 109.584415,100.279846 86.4672274,123.40094 C63.0219154,146.83844 51.7367584,176.541564 45.6742584,192.498596 C45.6703524,192.510314 45.6664464,192.518127 45.6625404,192.518127" id="Path" fill="#FBF199"></path>
            <path d="M47.9008214,172.268127 C47.5414464,173.08844 46.3148844,172.760314 46.4125404,171.86969 C46.6937904,169.350158 47.1586344,166.729064 47.8109774,164.029846 C51.8695714,147.170471 62.4242584,129.561096 77.5297274,114.459533 C94.2133214,97.7681269 114.416446,86.5298459 132.139102,83.7212519 C133.033634,83.5806269 133.420352,84.8110959 132.603946,85.1900019 C116.721134,92.7212519 98.5766024,103.510314 82.5805084,119.510314 C65.6937904,136.389221 54.9594154,156.248596 47.9008214,172.268127" id="Path" fill="#FDF8CC"></path>
            <path d="M194.330508,84.6900019 C194.447696,100.139221 199.814884,114.670471 209.63129,126.600158 C220.978946,140.40094 237.986758,148.58844 249.467227,162.279846 C258.146915,172.631408 263.264102,185.908752 263.764102,199.408752 C275.721134,173.811096 287.795352,147.201721 288.201602,118.940002 C288.514102,97.0493769 281.248477,74.7212519 266.310977,58.7212519 C256.326602,48.0298459 242.838321,40.4985959 228.428165,37.8618769 C223.064884,36.8814079 213.182071,34.9907829 208.166446,37.9282829 C203.416446,40.7095329 200.467227,49.0298459 198.752384,53.7993769 C196.248477,60.7681269 194.25629,74.9595329 194.330508,84.6900019" id="Path" fill="#8CC63F"></path>
            <path d="M215.834415,38.5493769 C213.25629,38.5493769 210.896915,38.8814079 209.279727,39.8306269 C205.268008,42.1782829 202.416446,50.1196899 200.88129,54.3892209 L200.826602,54.5415639 C198.424258,61.2212519 196.459415,75.0181269 196.533634,84.6704709 C196.646915,99.5610959 201.764102,113.568908 211.330508,125.209533 C216.908634,131.990783 224.107852,137.541564 231.072696,142.920471 C238.076602,148.318908 245.322696,153.908752 251.150821,160.861877 C258.435977,169.549377 263.268008,180.111877 265.135196,191.248596 C275.334415,169.170471 285.63129,144.639221 285.998477,118.908752 C286.322696,96.4517209 278.557071,75.0610959 264.701602,60.2212519 C254.91254,49.7407829 241.889102,42.5689079 228.033634,40.0298459 L227.72504,39.9712519 C224.66254,39.4087519 219.967227,38.5493769 215.834415,38.5493769 Z M261.900821,208.600158 L261.564884,199.490783 C261.080508,186.428283 256.182071,173.709533 247.779727,163.690002 C242.252384,157.111877 235.201602,151.658752 228.385196,146.40094 C221.22504,140.881408 213.822696,135.170471 207.932071,127.998596 C197.713321,115.580627 192.252384,100.611877 192.13129,84.7095329 C192.053165,74.6314079 194.139102,60.1314079 196.682071,53.0610959 L196.736758,52.9009399 C198.580508,47.7681269 201.666446,39.1900019 207.053165,36.0298459 C212.682071,32.7290639 222.596134,34.5493769 228.518008,35.6392209 L228.826602,35.7017209 C243.607852,38.4087519 257.490665,46.0493769 267.920352,57.2212519 C282.545352,72.8814079 290.740665,95.3892209 290.400821,118.971252 C289.978946,148.490783 277.111758,176.041564 265.75629,200.350158 L261.900821,208.600158" id="Shape" fill="#000000"></path>
            <path d="M209.654727,36.9087519 C212.654727,41.8384399 216.146915,46.6196899 219.69379,51.3384399 C223.25629,56.0493769 226.924258,60.7095329 230.607852,65.3618769 C234.28754,70.0181269 238.010196,74.6509399 241.627384,79.4009399 C243.424258,81.7485959 245.244571,84.2095329 246.779727,86.8110959 C248.330508,89.4009399 249.748477,92.0415639 251.072696,94.7212519 C253.709415,100.080627 256.080508,105.561096 258.232852,111.111877 C260.377384,116.670471 262.373477,122.291564 263.861758,128.080627 C265.334415,133.861877 266.31879,139.768127 266.732852,145.709533 C267.135196,151.639221 266.990665,157.65094 265.807071,163.479064 C266.81879,157.61969 266.783634,151.639221 266.209415,145.748596 C265.619571,139.861877 264.471134,134.029846 262.842227,128.361877 C261.209415,122.678283 259.076602,117.15094 256.791446,111.690002 C254.50629,106.240783 252.002384,100.86969 249.252384,95.6509399 C247.877384,93.0415639 246.41254,90.4907829 244.838321,88.0181269 C244.053165,86.7915639 243.221134,85.6118769 242.357852,84.4400019 C241.459415,83.2798459 240.545352,82.1314079 239.611758,80.9790639 C235.869571,76.4087519 231.990665,71.9087519 228.150821,67.3814079 C224.307071,62.8501579 220.467227,58.3110959 216.709415,53.6704709 C212.959415,49.0298459 209.268008,44.3384399 205.91254,39.2290639 L209.654727,36.9087519" id="Path" fill="#000000"></path>
        </g>
    </g>
</svg>