<?xml version="1.0" encoding="UTF-8"?>
<svg width="277px" height="362px" viewBox="0 0 277 362" version="1.1" xmlns="http://www.w3.org/2000/svg" xmlns:xlink="http://www.w3.org/1999/xlink">
    <title>Group 3</title>
    <g id="Page-1" stroke="none" stroke-width="1" fill="none" fill-rule="evenodd">
        <g id="Group-3" transform="translate(0.2301, 0.1169)" fill-rule="nonzero">
            <path d="M110.429721,25.3518123 C110.429721,25.3518123 184.129278,-32.5778757 268.648809,37.6643123 L258.699591,59.3713433 C258.699591,59.3713433 175.730841,65.9729063 157.699591,155.191707 C149.121465,155.211187 141.551153,149.601812 139.058965,141.402593 L138.668341,140.113531 C138.668341,140.113531 173.738653,49.3947813 228.941778,44.1135313 C228.941778,44.1135313 209.609747,5.42212428 125.398809,44.5940003 L124.359747,44.2815003 C116.051153,41.7424373 110.379278,34.0549373 110.429721,25.3518123" id="Path" fill="#754C24"></path>
            <path d="M141.781622,140.254156 L141.871465,140.543218 C143.769903,146.804937 149.031622,151.211187 155.348028,152.094 C165.340215,106.554937 192.390997,83.0236873 213.531622,71.2541563 C233.238653,60.2815003 251.148809,57.3127503 256.719122,56.6213433 L265.019903,38.4924373 C231.199591,11.0315003 195.348028,0.79321828 158.418341,8.06275028 C134.500372,12.7619683 117.859747,23.6525933 113.430059,26.8049373 C113.980841,33.5432183 118.640997,39.4416563 125.180059,41.4533743 C160.308965,25.2619683 188.719122,20.3518123 209.621465,26.8518123 C225.988653,31.9416563 231.348028,42.3635313 231.578497,42.8049373 C232.008184,43.6721243 231.988653,44.6916563 231.519903,45.5432183 C231.051153,46.3947813 230.191778,46.9533743 229.219122,47.0549373 C179.398809,51.8127503 145.668341,130.754156 141.781622,140.254156 Z M157.660528,158.144781 C147.730841,158.144781 139.129278,151.761968 136.238653,142.254156 L135.848028,140.972906 C135.660528,140.344 135.680059,139.664312 135.918341,139.054937 C136.281622,138.113531 144.988653,115.804937 160.660528,92.4533743 C180.469122,62.9416563 201.640997,45.9611873 223.648809,41.8947813 C220.930059,38.9533743 215.871465,34.8518123 207.320684,32.3127503 C193.820684,28.2932183 168.859747,27.6213433 126.640997,47.2619683 C125.980841,47.5744683 125.238653,47.6213433 124.539434,47.4143123 L123.508184,47.0940003 C114.008184,44.2033743 107.430059,35.2619683 107.488265,25.3322813 C107.488265,24.4416563 107.910528,23.5940003 108.609747,23.0432183 C109.390997,22.4338433 127.930059,8.05493728 157.281622,2.28150028 C184.359747,-3.04662572 225.980841,-1.62865672 270.531622,35.3947813 C271.551153,36.2424373 271.879278,37.6721243 271.320684,38.8830623 L261.379278,60.6018123 C260.930059,61.5744683 260.000372,62.2229063 258.930059,62.3127503 C258.730841,62.3244683 238.379278,64.1018123 216.180059,76.5119683 C186.570684,93.0822813 167.871465,119.754156 160.590215,155.7815 C160.308965,157.152593 159.109747,158.144781 157.711309,158.144781 C157.691778,158.144781 157.680059,158.144781 157.660528,158.144781" id="Shape" fill="#000000"></path>
            <path d="M260.480841,60.3440003 C256.340215,58.9143123 254.719122,52.6916563 256.879278,46.4611873 C259.031622,40.2229063 264.140997,36.3244683 268.281622,37.7619683 C272.430059,39.1916563 274.039434,45.4025933 271.890997,51.6447813 C269.738653,57.8830623 264.629278,61.7736873 260.480841,60.3440003" id="Path" fill="#754C24"></path>
            <path d="M266.488653,40.4025933 C265.348028,40.4025933 264.238653,41.0940003 263.621465,41.5744683 C261.941778,42.8518123 260.500372,44.9846243 259.660528,47.4221243 C258.820684,49.8635313 258.640997,52.4221243 259.168341,54.4611873 C259.410528,55.4143123 260.039434,57.0744683 261.441778,57.5627503 C262.859747,58.0549373 264.371465,57.1213433 265.148809,56.5236873 C266.820684,55.2541563 268.269903,53.1213433 269.109747,50.6838433 C269.949591,48.2424373 270.129278,45.6721243 269.598028,43.6447813 C269.348028,42.6916563 268.730841,41.0315003 267.320684,40.5432183 C267.039434,40.4416563 266.758184,40.4025933 266.488653,40.4025933 Z M262.250372,63.5822813 C261.320684,63.5822813 260.398809,63.4338433 259.519903,63.1330623 C256.598028,62.1135313 254.390997,59.5041563 253.469122,55.9416563 C252.640997,52.7619683 252.859747,49.0549373 254.090215,45.5041563 C255.320684,41.9416563 257.430059,38.8830623 260.039434,36.8947813 C262.961309,34.6643123 266.320684,33.9611873 269.238653,34.9729063 C272.168341,35.9846243 274.371465,38.6018123 275.301153,42.1643123 C276.121465,45.3322813 275.898809,49.0432183 274.668341,52.6018123 C273.449591,56.1643123 271.328497,59.2229063 268.719122,61.2111873 C266.680059,62.7736873 264.418341,63.5822813 262.250372,63.5822813" id="Shape" fill="#000000"></path>
            <path d="M193.691778,128.621343 C186.879278,146.824468 166.609747,156.054937 148.410528,149.242437 C130.211309,142.441656 120.980841,122.164312 127.789434,103.972906 C134.598028,85.7736873 154.871465,76.5432183 173.070684,83.3440003 C191.258184,90.1525933 200.500372,110.422124 193.691778,128.621343" id="Path" fill="#662D91"></path>
            <path d="M160.719122,84.2033743 C156.199591,84.2033743 151.691778,85.1721243 147.441778,87.1018123 C139.648809,90.6525933 133.699591,97.0315003 130.699591,105.054937 C127.691778,113.082281 128.000372,121.793218 131.551153,129.594 C135.098028,137.394781 141.469122,143.332281 149.500372,146.344 C157.519903,149.344 166.238653,149.043218 174.039434,145.484624 C181.828497,141.933843 187.781622,135.56275 190.781622,127.5315 C193.781622,119.511968 193.480841,110.793218 189.930059,103.004156 C186.379278,95.2033743 180.000372,89.2541563 171.980841,86.2541563 C168.320684,84.8830623 164.519903,84.2033743 160.719122,84.2033743 Z M160.758184,154.601812 C156.230841,154.601812 151.691778,153.7815 147.320684,152.152593 C137.750372,148.574468 130.140997,141.472906 125.898809,132.164312 C121.660528,122.863531 121.301153,112.461187 124.879278,102.883062 C128.469122,93.3049373 135.558965,85.6916563 144.871465,81.4533743 C154.180059,77.2111873 164.578497,76.8518123 174.148809,80.4416563 C183.730841,84.0236873 191.340215,91.1213433 195.578497,100.422124 C199.820684,109.734624 200.180059,120.133062 196.598028,129.711187 C193.008184,139.293218 185.910528,146.894781 176.609747,151.133062 C171.551153,153.441656 166.160528,154.601812 160.758184,154.601812" id="Shape" fill="#000000"></path>
            <path d="M186.238653,118.664312 C186.340215,118.293218 186.898809,118.383062 186.871465,118.773687 C186.871465,118.7815 186.871465,118.793218 186.871465,118.804937 C186.769903,119.851812 186.578497,120.894781 186.328497,121.922124 C185.808965,123.961187 185.019903,125.961187 183.949591,127.824468 C183.418341,128.734624 182.859747,129.633062 182.250372,130.492437 L182.019903,130.824468 L181.789434,131.144781 C181.629278,131.351812 181.469122,131.574468 181.308965,131.7815 C181.140997,131.984624 180.980841,132.191656 180.808965,132.402593 L180.301153,133.011968 C178.898809,134.621343 177.340215,136.113531 175.609747,137.383062 C175.398809,137.554937 175.168341,137.691656 174.949591,137.851812 L174.621465,138.082281 L174.281622,138.304937 C174.051153,138.441656 173.828497,138.594 173.598028,138.734624 L173.250372,138.941656 C173.129278,139.011968 173.008184,139.074468 172.890997,139.144781 C171.941778,139.664312 170.949591,140.113531 169.941778,140.492437 C168.918341,140.863531 167.890997,141.172124 166.840215,141.402593 C166.320684,141.523687 165.801153,141.621343 165.269903,141.711187 C165.008184,141.754156 164.738653,141.793218 164.480841,141.824468 L164.078497,141.883062 L163.691778,141.922124 C161.570684,142.133062 159.449591,142.113531 157.359747,141.894781 C156.320684,141.7815 155.289434,141.633062 154.269903,141.433843 C154.219122,141.422124 154.160528,141.414312 154.109747,141.402593 C153.730841,141.332281 153.789434,140.773687 154.180059,140.773687 C154.230841,140.773687 154.281622,140.773687 154.328497,140.773687 C155.359747,140.773687 156.379278,140.761968 157.398809,140.711187 C159.441778,140.633062 161.449591,140.433843 163.418341,140.06275 C165.379278,139.683843 167.301153,139.152593 169.109747,138.383062 C170.019903,138.011968 170.898809,137.582281 171.738653,137.094 C172.578497,136.613531 173.398809,136.054937 174.199591,135.472906 C174.398809,135.324468 174.598028,135.183843 174.789434,135.0315 L175.371465,134.574468 C175.750372,134.254156 176.129278,133.933843 176.500372,133.601812 C177.238653,132.941656 177.941778,132.242437 178.629278,131.523687 C179.988653,130.06275 181.250372,128.492437 182.398809,126.844 C183.539434,125.222906 184.480841,123.433843 185.238653,121.56275 C185.629278,120.621343 185.961309,119.652593 186.238653,118.664312" id="Path" fill="#4D226D"></path>
            <path d="M149.308965,102.363531 C140.328497,109.953374 137.621465,121.511968 136.668341,120.394781 C132.019903,114.894781 135.531622,104.2815 144.508184,96.6838433 C153.488653,89.0940003 164.539434,87.3830623 169.191778,92.8830623 C169.730841,93.5236873 158.289434,94.7619683 149.308965,102.363531" id="Path" fill="#8557A7"></path>
            <path d="M137.090215,117.054937 C136.969122,117.304937 136.609747,117.273687 136.519903,117.011968 C135.890997,115.004156 136.019903,112.5315 136.918341,109.804937 C138.320684,105.594 141.359747,101.344 145.488653,97.8440003 C150.820684,93.3440003 157.258184,90.8049373 162.301153,91.2229063 C163.488653,91.3244683 164.570684,91.5940003 165.508184,92.0119683 C165.769903,92.1213433 165.750372,92.5041563 165.469122,92.5822813 C161.390997,93.7736873 154.371465,96.0940003 148.328497,101.203374 C142.199591,106.383062 138.879278,113.324468 137.098028,117.043218 C137.098028,117.043218 137.098028,117.054937 137.090215,117.054937" id="Path" fill="#A381BD"></path>
            <path d="M138.039434,112.211187 C137.941778,112.402593 137.648809,112.293218 137.691778,112.082281 C137.808965,111.484624 137.980841,110.863531 138.191778,110.222906 C139.508184,106.234624 142.410528,102.203374 146.348028,98.8635313 C150.711309,95.1721243 155.808965,92.8713433 160.148809,92.5432183 C160.359747,92.5315003 160.430059,92.8322813 160.230841,92.9143123 C156.250372,94.4025933 151.648809,96.6447813 147.469122,100.183843 C143.058965,103.914312 140.070684,108.492437 138.039434,112.211187" id="Path" fill="#C2ABD3"></path>
            <path d="M134.410528,116.472906 C127.598028,134.672124 107.328497,143.902593 89.1409968,137.094 C70.9417778,130.2815 61.6995908,110.011968 68.5081838,91.8127503 C75.3206838,73.6213433 95.5902148,64.3830623 113.789434,71.1916563 C131.988653,78.0041563 141.219122,98.2736873 134.410528,116.472906" id="Path" fill="#662D91"></path>
            <path d="M101.449591,72.0549373 C96.9183408,72.0549373 92.4105278,73.0236873 88.1683408,74.9533743 C80.3714648,78.5041563 74.4183408,84.8830623 71.4183408,92.9025933 C68.4183408,100.933843 68.7191218,109.644781 72.2699028,117.441656 C75.8206838,125.234624 82.1995908,131.183843 90.2191218,134.191656 C106.789434,140.383062 125.308965,131.953374 131.508184,115.383062 C137.699591,98.8244683 129.269903,80.3049373 112.699591,74.1018123 C109.039434,72.7346243 105.238653,72.0549373 101.449591,72.0549373 Z M101.418341,142.433843 C96.9691218,142.433843 92.4495908,141.652593 88.0511528,140.004156 C78.4691218,136.414312 70.8597468,129.324468 66.6214648,120.011968 C62.3792778,110.703374 62.0199028,100.304937 65.6097468,90.7346243 C69.1917778,81.1525933 76.2894338,73.5432183 85.5902148,69.3049373 C94.8988088,65.0627503 105.301153,64.7033743 114.879278,68.2932183 C134.648809,75.6838433 144.719122,97.7932183 137.320684,117.56275 C131.570684,132.922124 116.941778,142.433843 101.418341,142.433843" id="Shape" fill="#000000"></path>
            <path d="M126.961309,106.511968 C127.070684,106.133062 127.629278,106.234624 127.590215,106.621343 C127.590215,106.633062 127.590215,106.644781 127.590215,106.652593 C127.488653,107.703374 127.308965,108.742437 127.051153,109.761968 C126.539434,111.81275 125.750372,113.81275 124.668341,115.672124 C124.148809,116.582281 123.578497,117.484624 122.969122,118.344 L122.738653,118.672124 L122.508184,118.992437 C122.348028,119.203374 122.199591,119.422124 122.031622,119.621343 C121.859747,119.832281 121.699591,120.043218 121.531622,120.254156 L121.019903,120.863531 C119.621465,122.472906 118.058965,123.953374 116.328497,125.234624 C116.121465,125.394781 115.890997,125.543218 115.668341,125.703374 L115.340215,125.922124 L115.000372,126.144781 C114.781622,126.293218 114.558965,126.441656 114.320684,126.574468 L113.969122,126.793218 C113.848028,126.851812 113.730841,126.922124 113.609747,126.992437 C112.660528,127.511968 111.668341,127.961187 110.660528,128.344 C109.648809,128.711187 108.609747,129.023687 107.570684,129.254156 C107.051153,129.371343 106.519903,129.472906 105.988653,129.56275 C105.730841,129.601812 105.469122,129.644781 105.199591,129.672124 L104.808965,129.722906 L104.410528,129.773687 C102.289434,129.984624 100.168341,129.961187 98.0902148,129.742437 C97.0511528,129.633062 96.0081838,129.484624 94.9886528,129.2815 C94.9417778,129.273687 94.8909968,129.261968 94.8402148,129.254156 C94.4495908,129.183843 94.5081838,128.613531 94.8988088,128.621343 C94.9495908,128.621343 95.0003718,128.621343 95.0511528,128.621343 C96.0784968,128.621343 97.1097468,128.613531 98.1292778,128.56275 C100.160528,128.484624 102.180059,128.2815 104.140997,127.914312 C106.098028,127.5315 108.019903,126.992437 109.828497,126.234624 C110.738653,125.851812 111.621465,125.422124 112.461309,124.941656 C113.301153,124.461187 114.121465,123.902593 114.918341,123.324468 C115.121465,123.172124 115.320684,123.0315 115.519903,122.871343 L116.098028,122.414312 C116.480841,122.101812 116.848028,121.7815 117.219122,121.453374 C117.969122,120.793218 118.668341,120.094 119.348028,119.371343 C120.711309,117.914312 121.969122,116.344 123.121465,114.683843 C124.258184,113.06275 125.199591,111.2815 125.969122,109.414312 C126.348028,108.472906 126.691778,107.504156 126.961309,106.511968" id="Path" fill="#4D226D"></path>
            <path d="M90.0394338,90.2033743 C81.0589648,97.8049373 78.3402148,109.363531 77.3909968,108.242437 C72.7386528,102.742437 76.2581838,92.1330623 85.2386528,84.5315003 C94.2191218,76.9338433 105.269903,75.2346243 109.910528,80.7346243 C110.461309,81.3713433 99.0199028,82.6135313 90.0394338,90.2033743" id="Path" fill="#8557A7"></path>
            <path d="M77.8206838,104.902593 C77.6995908,105.152593 77.3284968,105.121343 77.2503718,104.863531 C76.6214648,102.851812 76.7386528,100.383062 77.6488088,97.6525933 C79.0394338,93.4338433 82.0902148,89.1916563 86.2191218,85.6916563 C91.5394338,81.1916563 97.9808408,78.6525933 103.019903,79.0744683 C104.211309,79.1721243 105.289434,79.4416563 106.238653,79.8635313 C106.500372,79.9729063 106.469122,80.3518123 106.199591,80.4338433 C102.109747,81.6213433 95.0902148,83.9338433 89.0511528,89.0432183 C82.9300588,94.2346243 79.5980278,101.164312 77.8206838,104.894781 C77.8206838,104.894781 77.8206838,104.894781 77.8206838,104.902593" id="Path" fill="#A381BD"></path>
            <path d="M78.7699028,100.06275 C78.6605278,100.254156 78.3714648,100.144781 78.4105278,99.9338433 C78.5316218,99.3322813 78.6995908,98.7033743 78.9105278,98.0744683 C80.2308408,94.0822813 83.1292778,90.0549373 87.0784968,86.7111873 C91.4417778,83.0236873 96.5394338,80.7111873 100.871465,80.3947813 C101.090215,80.3830623 101.160528,80.6838433 100.949591,80.7619683 C96.9691218,82.2541563 92.3714648,84.4924373 88.1917778,88.0315003 C83.7816218,91.7619683 80.7894338,96.3440003 78.7699028,100.06275" id="Path" fill="#C2ABD3"></path>
            <path d="M238.801153,165.422124 C231.988653,183.621343 211.719122,192.851812 193.519903,186.043218 C175.320684,179.242437 166.090215,158.961187 172.898809,140.773687 C179.711309,122.574468 199.980841,113.344 218.180059,120.144781 C236.371465,126.953374 245.609747,147.222906 238.801153,165.422124" id="Path" fill="#662D91"></path>
            <path d="M205.828497,121.004156 C201.308965,121.004156 196.789434,121.972906 192.551153,123.902593 C184.750372,127.453374 178.808965,133.832281 175.808965,141.851812 C172.801153,149.883062 173.098028,158.594 176.660528,166.394781 C180.211309,174.191656 186.578497,180.144781 194.609747,183.144781 C202.629278,186.144781 211.348028,185.844 219.140997,182.293218 C226.941778,178.742437 232.890997,172.363531 235.890997,164.344 C242.090215,147.773687 233.648809,129.254156 217.090215,123.054937 C213.430059,121.683843 209.629278,121.004156 205.828497,121.004156 Z M205.871465,191.402593 C201.340215,191.402593 196.801153,190.594 192.430059,188.953374 C182.848028,185.371343 175.250372,178.273687 171.008184,168.961187 C166.769903,159.664312 166.410528,149.261968 169.988653,139.683843 C173.570684,130.101812 180.668341,122.492437 189.980841,118.254156 C199.281622,114.011968 209.680059,113.652593 219.258184,117.242437 C239.031622,124.644781 249.098028,146.742437 241.699591,166.511968 C238.121465,176.094 231.019903,183.703374 221.719122,187.941656 C216.648809,190.242437 211.269903,191.402593 205.871465,191.402593" id="Shape" fill="#000000"></path>
            <path d="M231.348028,155.461187 C231.449591,155.094 232.008184,155.191656 231.980841,155.574468 C231.980841,155.594 231.980841,155.594 231.969122,155.613531 C231.879278,156.652593 231.691778,157.691656 231.441778,158.722906 C230.918341,160.773687 230.129278,162.761968 229.058965,164.621343 C228.531622,165.5315 227.969122,166.433843 227.359747,167.304937 L227.129278,167.621343 L226.890997,167.941656 C226.730841,168.152593 226.578497,168.371343 226.410528,168.582281 C226.250372,168.793218 226.090215,169.004156 225.918341,169.203374 L225.398809,169.81275 C224.008184,171.433843 222.441778,172.914312 220.711309,174.183843 C220.500372,174.351812 220.281622,174.492437 220.058965,174.652593 L219.730841,174.883062 L219.390997,175.101812 C219.160528,175.242437 218.941778,175.394781 218.699591,175.5315 L218.348028,175.742437 C218.238653,175.81275 218.121465,175.871343 218.000372,175.941656 C217.039434,176.461187 216.058965,176.914312 215.039434,177.293218 C214.031622,177.664312 213.000372,177.984624 211.949591,178.203374 C211.430059,178.324468 210.910528,178.433843 210.379278,178.511968 C210.109747,178.554937 209.848028,178.594 209.590215,178.633062 L209.191778,178.683843 L208.789434,178.722906 C206.680059,178.941656 204.558965,178.914312 202.469122,178.691656 C201.430059,178.582281 200.398809,178.433843 199.371465,178.242437 C199.320684,178.234624 199.269903,178.222906 199.219122,178.211187 C198.840215,178.133062 198.898809,177.574468 199.289434,177.574468 C199.340215,177.574468 199.390997,177.574468 199.441778,177.574468 C200.469122,177.574468 201.488653,177.56275 202.508184,177.523687 C204.551153,177.433843 206.558965,177.242437 208.519903,176.863531 C210.488653,176.484624 212.410528,175.953374 214.219122,175.191656 C215.121465,174.81275 216.000372,174.383062 216.848028,173.894781 C217.691778,173.414312 218.508184,172.851812 219.308965,172.273687 C219.500372,172.121343 219.699591,171.984624 219.898809,171.832281 L220.480841,171.371343 C220.859747,171.054937 221.238653,170.734624 221.609747,170.402593 C222.348028,169.742437 223.051153,169.043218 223.738653,168.324468 C225.098028,166.863531 226.348028,165.293218 227.508184,163.644781 C228.648809,162.023687 229.590215,160.242437 230.348028,158.371343 C230.738653,157.422124 231.070684,156.453374 231.348028,155.461187" id="Path" fill="#4D226D"></path>
            <path d="M194.418341,139.164312 C185.441778,146.754156 182.730841,158.31275 181.781622,157.191656 C177.129278,151.691656 180.640997,141.082281 189.621465,133.484624 C198.598028,125.894781 209.648809,124.191656 214.301153,129.683843 C214.840215,130.324468 203.398809,131.56275 194.418341,139.164312" id="Path" fill="#8557A7"></path>
            <path d="M182.199591,153.851812 C182.078497,154.101812 181.719122,154.074468 181.629278,153.81275 C181.000372,151.804937 181.129278,149.332281 182.031622,146.601812 C183.430059,142.394781 186.469122,138.144781 190.598028,134.652593 C195.930059,130.144781 202.371465,127.601812 207.398809,128.023687 C208.598028,128.121343 209.680059,128.394781 210.621465,128.81275 C210.879278,128.922124 210.859747,129.304937 210.578497,129.383062 C206.500372,130.574468 199.480841,132.894781 193.441778,138.004156 C187.308965,143.183843 183.988653,150.121343 182.211309,153.844 C182.199591,153.851812 182.199591,153.851812 182.199591,153.851812" id="Path" fill="#A381BD"></path>
            <path d="M183.148809,149.011968 C183.051153,149.203374 182.758184,149.101812 182.801153,148.883062 C182.918341,148.2815 183.078497,147.664312 183.289434,147.023687 C184.609747,143.043218 187.508184,139.004156 191.461309,135.664312 C195.820684,131.972906 200.918341,129.672124 205.250372,129.351812 C205.469122,129.332281 205.539434,129.644781 205.340215,129.711187 C201.348028,131.211187 196.758184,133.441656 192.578497,136.984624 C188.168341,140.711187 185.180059,145.293218 183.148809,149.011968" id="Path" fill="#C2ABD3"></path>
            <path d="M130.070684,302.914312 C123.269903,321.101812 102.988653,330.344 84.8011528,323.5315 C66.5980278,316.722906 57.3714648,296.453374 64.1683408,278.254156 C70.9808408,260.054937 91.2503718,250.824468 109.449591,257.633062 C127.648809,264.441656 136.879278,284.711187 130.070684,302.914312" id="Path" fill="#662D91"></path>
            <path d="M97.1605278,258.504156 C84.1605278,258.504156 71.8988088,266.461187 67.0784968,279.344 C64.0784968,287.363531 64.3792778,296.082281 67.9300588,303.871343 C71.4808408,311.672124 77.8597468,317.621343 85.8909968,320.621343 C102.449591,326.824468 120.969122,318.383062 127.168341,301.824468 C133.359747,285.254156 124.930059,266.734624 108.359747,260.543218 C104.668341,259.164312 100.890997,258.504156 97.1605278,258.504156 Z M97.0784968,328.863531 C92.6409968,328.863531 88.1214648,328.094 83.7113088,326.441656 C74.1292778,322.851812 66.5199028,315.754156 62.2816218,306.453374 C58.0394338,297.144781 57.6800588,286.742437 61.2699028,277.164312 C68.6605278,257.394781 90.7699028,247.332281 110.539434,254.722906 C130.308965,262.121343 140.379278,284.222906 132.980841,303.992437 C127.230841,319.363531 112.598028,328.863531 97.0784968,328.863531" id="Shape" fill="#000000"></path>
            <path d="M122.621465,292.953374 C122.730841,292.574468 123.289434,292.672124 123.250372,293.06275 C123.250372,293.074468 123.250372,293.082281 123.250372,293.094 C123.160528,294.144781 122.969122,295.183843 122.711309,296.203374 C122.199591,298.254156 121.410528,300.254156 120.340215,302.101812 C119.808965,303.023687 119.250372,303.914312 118.629278,304.7815 L118.410528,305.113531 L118.168341,305.433843 C118.008184,305.644781 117.859747,305.863531 117.691778,306.06275 C117.519903,306.273687 117.359747,306.484624 117.191778,306.691656 L116.680059,307.304937 C115.289434,308.914312 113.719122,310.394781 111.988653,311.672124 C111.781622,311.832281 111.558965,311.984624 111.340215,312.133062 L111.000372,312.363531 L110.668341,312.582281 C110.441778,312.734624 110.219122,312.883062 109.980841,313.011968 L109.629278,313.222906 C109.508184,313.293218 109.390997,313.363531 109.269903,313.422124 C108.320684,313.941656 107.328497,314.402593 106.320684,314.773687 C105.308965,315.152593 104.281622,315.461187 103.230841,315.691656 C102.711309,315.81275 102.180059,315.914312 101.660528,316.004156 C101.390997,316.043218 101.129278,316.082281 100.859747,316.113531 L100.469122,316.164312 L100.070684,316.203374 C97.9495908,316.422124 95.8284968,316.402593 93.7503718,316.183843 C92.7113088,316.074468 91.6683408,315.922124 90.6488088,315.722906 C90.5980278,315.711187 90.5511528,315.703374 90.5003718,315.691656 C90.1214648,315.621343 90.1683408,315.054937 90.5589648,315.054937 C90.6097468,315.054937 90.6683408,315.054937 90.7191218,315.06275 C91.7386528,315.06275 92.7699028,315.054937 93.7894338,315.004156 C95.8206838,314.922124 97.8402148,314.722906 99.8011528,314.344 C101.758184,313.961187 103.680059,313.433843 105.488653,312.672124 C106.398809,312.293218 107.281622,311.863531 108.121465,311.371343 C108.961309,310.902593 109.789434,310.344 110.578497,309.754156 C110.781622,309.613531 110.980841,309.461187 111.180059,309.31275 L111.758184,308.851812 C112.140997,308.543218 112.519903,308.211187 112.879278,307.894781 C113.629278,307.234624 114.328497,306.5315 115.019903,305.804937 C116.371465,304.351812 117.629278,302.7815 118.781622,301.121343 C119.918341,299.504156 120.859747,297.722906 121.629278,295.851812 C122.008184,294.914312 122.348028,293.941656 122.621465,292.953374" id="Path" fill="#4D226D"></path>
            <path d="M85.6995908,276.644781 C76.7191218,284.242437 74.0003718,295.804937 73.0511528,294.672124 C68.3988088,289.183843 71.9183408,278.574468 80.8988088,270.972906 C89.8792778,263.371343 100.930059,261.672124 105.578497,267.164312 C106.121465,267.81275 94.6800588,269.054937 85.6995908,276.644781" id="Path" fill="#8557A7"></path>
            <path d="M73.4808408,291.344 C73.3597468,291.594 72.9886528,291.56275 72.9105278,291.293218 C72.2816218,289.293218 72.3988088,286.824468 73.3089648,284.094 C74.6995908,279.871343 77.7503718,275.633062 81.8792778,272.133062 C87.2113088,267.621343 93.6409968,265.094 98.6800588,265.511968 C99.8714648,265.613531 100.961309,265.871343 101.898809,266.293218 C102.160528,266.414312 102.129278,266.793218 101.859747,266.871343 C97.7699028,268.06275 90.7581838,270.371343 84.7113088,275.484624 C78.5902148,280.664312 75.2699028,287.601812 73.4808408,291.332281 C73.4808408,291.332281 73.4808408,291.332281 73.4808408,291.344" id="Path" fill="#A381BD"></path>
            <path d="M74.4300588,286.492437 C74.3206838,286.691656 74.0316218,286.582281 74.0784968,286.371343 C74.1917778,285.773687 74.3597468,285.144781 74.5706838,284.504156 C75.8909968,280.523687 78.7894338,276.492437 82.7386528,273.152593 C87.0980278,269.461187 92.1995908,267.152593 96.5316218,266.832281 C96.7503718,266.81275 96.8206838,267.121343 96.6097468,267.203374 C92.6292778,268.691656 88.0394338,270.933843 83.8480278,274.472906 C79.4417778,278.203374 76.4495908,282.773687 74.4300588,286.492437" id="Path" fill="#C2ABD3"></path>
            <path d="M139.941778,164.472906 C133.129278,182.672124 112.859747,191.902593 94.6605278,185.094 C76.4691218,178.2815 67.2308408,158.011968 74.0394338,139.81275 C80.8480278,121.621343 101.121465,112.383062 119.320684,119.191656 C137.519903,126.004156 146.750372,146.273687 139.941778,164.472906" id="Path" fill="#662D91"></path>
            <path d="M107.019903,120.06275 C94.0199028,120.06275 81.7581838,128.0315 76.9495908,140.902593 C70.7503718,157.472906 79.1917778,175.992437 95.7503718,182.183843 C103.769903,185.191656 112.488653,184.883062 120.289434,181.332281 C128.078497,177.7815 134.031622,171.402593 137.031622,163.383062 C140.039434,155.363531 139.730841,146.644781 136.180059,138.844 C132.629278,131.054937 126.258184,125.101812 118.230841,122.101812 C114.539434,120.722906 110.750372,120.06275 107.019903,120.06275 Z M107.008184,190.453374 C102.480841,190.453374 97.9417778,189.633062 93.5784968,188.004156 C73.8089648,180.601812 63.7386528,158.504156 71.1292778,138.734624 C78.5316218,118.953374 100.629278,108.883062 120.410528,116.2815 C129.980841,119.871343 137.590215,126.972906 141.828497,136.273687 C146.070684,145.582281 146.430059,155.984624 142.848028,165.56275 C139.258184,175.133062 132.168341,182.742437 122.859747,186.984624 C117.801153,189.293218 112.410528,190.453374 107.008184,190.453374" id="Shape" fill="#000000"></path>
            <path d="M132.488653,154.511968 C132.590215,154.133062 133.148809,154.234624 133.121465,154.621343 C133.121465,154.633062 133.121465,154.644781 133.121465,154.652593 C133.019903,155.703374 132.828497,156.742437 132.578497,157.761968 C132.058965,159.81275 131.269903,161.81275 130.199591,163.672124 C129.680059,164.582281 129.109747,165.484624 128.500372,166.344 L128.269903,166.672124 L128.039434,166.992437 C127.879278,167.203374 127.730841,167.422124 127.558965,167.621343 C127.390997,167.832281 127.230841,168.043218 127.058965,168.254156 L126.551153,168.863531 C125.148809,170.472906 123.590215,171.953374 121.859747,173.234624 C121.648809,173.394781 121.418341,173.543218 121.199591,173.691656 L120.871465,173.922124 L120.531622,174.144781 C120.308965,174.293218 120.078497,174.441656 119.848028,174.574468 L119.500372,174.793218 C119.379278,174.851812 119.258184,174.922124 119.140997,174.992437 C118.191778,175.511968 117.199591,175.961187 116.191778,176.344 C115.168341,176.711187 114.140997,177.023687 113.098028,177.254156 C112.570684,177.371343 112.051153,177.472906 111.519903,177.56275 C111.258184,177.601812 110.988653,177.644781 110.730841,177.672124 L110.328497,177.722906 L109.941778,177.773687 C107.820684,177.984624 105.699591,177.961187 103.621465,177.742437 C102.570684,177.633062 101.539434,177.484624 100.519903,177.2815 C100.469122,177.273687 100.418341,177.261968 100.359747,177.254156 C99.9808408,177.183843 100.039434,176.613531 100.430059,176.621343 C100.480841,176.621343 100.531622,176.621343 100.578497,176.621343 C101.609747,176.621343 102.640997,176.613531 103.648809,176.56275 C105.691778,176.484624 107.699591,176.2815 109.668341,175.914312 C111.629278,175.5315 113.551153,174.992437 115.359747,174.234624 C116.269903,173.851812 117.148809,173.422124 117.988653,172.941656 C118.828497,172.461187 119.648809,171.902593 120.449591,171.324468 C120.648809,171.172124 120.848028,171.023687 121.039434,170.871343 L121.621465,170.414312 C122.000372,170.101812 122.379278,169.7815 122.750372,169.453374 C123.488653,168.793218 124.191778,168.094 124.879278,167.371343 C126.238653,165.914312 127.500372,164.344 128.648809,162.683843 C129.789434,161.06275 130.730841,159.2815 131.500372,157.414312 C131.879278,156.472906 132.219122,155.504156 132.488653,154.511968" id="Path" fill="#4D226D"></path>
            <path d="M95.5589648,138.203374 C86.5784968,145.804937 83.8714648,157.363531 82.9183408,156.242437 C78.2699028,150.742437 81.7816218,140.133062 90.7581838,132.5315 C99.7386528,124.933843 110.789434,123.234624 115.441778,128.734624 C115.980841,129.371343 104.539434,130.613531 95.5589648,138.203374" id="Path" fill="#8557A7"></path>
            <path d="M83.3480278,152.902593 C83.2308408,153.152593 82.8597468,153.121343 82.7816218,152.863531 C82.1409968,150.851812 82.2699028,148.383062 83.1683408,145.652593 C84.5706838,141.433843 87.6097468,137.191656 91.7503718,133.691656 C97.0706838,129.191656 103.508184,126.652593 108.551153,127.074468 C109.738653,127.172124 110.820684,127.441656 111.769903,127.863531 C112.031622,127.972906 112.000372,128.351812 111.730841,128.433843 C107.640997,129.621343 100.621465,131.933843 94.5784968,137.043218 C88.4495908,142.234624 85.1292778,149.164312 83.3480278,152.894781 C83.3480278,152.894781 83.3480278,152.894781 83.3480278,152.902593" id="Path" fill="#A381BD"></path>
            <path d="M84.2894338,148.06275 C84.1917778,148.254156 83.8988088,148.144781 83.9417778,147.933843 C84.0589648,147.332281 84.2308408,146.703374 84.4417778,146.074468 C85.7581838,142.082281 88.6605278,138.054937 92.5980278,134.711187 C96.9691218,131.023687 102.058965,128.711187 106.398809,128.394781 C106.609747,128.383062 106.680059,128.683843 106.480841,128.761968 C102.500372,130.254156 97.8988088,132.492437 93.7191218,136.0315 C89.3089648,139.761968 86.3206838,144.332281 84.2894338,148.06275" id="Path" fill="#C2ABD3"></path>
            <path d="M204.680059,190.222906 C197.871465,208.422124 177.598028,217.652593 159.398809,210.844 C141.211309,204.043218 131.969122,183.761968 138.781622,165.574468 C145.590215,147.371343 165.859747,138.133062 184.058965,144.941656 C202.258184,151.754156 211.488653,172.023687 204.680059,190.222906" id="Path" fill="#662D91"></path>
            <path d="M171.719122,145.804937 C167.191778,145.804937 162.680059,146.773687 158.430059,148.703374 C150.640997,152.254156 144.691778,158.633062 141.691778,166.652593 C138.691778,174.683843 138.988653,183.394781 142.539434,191.191656 C146.090215,198.992437 152.469122,204.933843 160.488653,207.941656 C168.519903,210.941656 177.230841,210.644781 185.031622,207.082281 C192.820684,203.5315 198.769903,197.164312 201.769903,189.133062 C204.781622,181.113531 204.469122,172.394781 200.918341,164.601812 C197.371465,156.804937 191.000372,150.851812 182.969122,147.851812 C179.308965,146.484624 175.508184,145.804937 171.719122,145.804937 Z M171.750372,216.203374 C167.219122,216.203374 162.680059,215.383062 158.308965,213.754156 C148.738653,210.172124 141.129278,203.074468 136.890997,193.761968 C132.648809,184.461187 132.289434,174.06275 135.871465,164.484624 C139.461309,154.902593 146.558965,147.293218 155.859747,143.054937 C165.168341,138.81275 175.570684,138.453374 185.148809,142.043218 C194.719122,145.621343 202.328497,152.722906 206.570684,162.023687 C210.808965,171.332281 211.168341,181.734624 207.590215,191.31275 C204.000372,200.894781 196.910528,208.492437 187.598028,212.734624 C182.539434,215.043218 177.148809,216.203374 171.750372,216.203374" id="Shape" fill="#000000"></path>
            <path d="M197.230841,180.261968 C197.328497,179.894781 197.890997,179.984624 197.859747,180.371343 C197.859747,180.383062 197.859747,180.394781 197.859747,180.402593 C197.758184,181.453374 197.570684,182.492437 197.320684,183.523687 C196.801153,185.56275 196.008184,187.56275 194.941778,189.422124 C194.418341,190.332281 193.848028,191.234624 193.238653,192.094 L193.008184,192.422124 L192.781622,192.742437 C192.621465,192.953374 192.469122,193.172124 192.301153,193.383062 C192.129278,193.582281 191.969122,193.793218 191.801153,194.004156 L191.289434,194.613531 C189.890997,196.222906 188.328497,197.711187 186.598028,198.984624 C186.390997,199.152593 186.160528,199.293218 185.941778,199.453374 L185.609747,199.683843 L185.269903,199.894781 C185.051153,200.043218 184.820684,200.191656 184.590215,200.332281 L184.238653,200.543218 C184.121465,200.613531 184.000372,200.672124 183.879278,200.742437 C182.930059,201.261968 181.941778,201.711187 180.930059,202.094 C179.910528,202.461187 178.879278,202.773687 177.840215,203.004156 C177.308965,203.121343 176.789434,203.222906 176.258184,203.31275 C176.000372,203.351812 175.730841,203.394781 175.469122,203.422124 L175.070684,203.484624 L174.680059,203.523687 C172.558965,203.734624 170.441778,203.711187 168.359747,203.492437 C167.308965,203.383062 166.281622,203.234624 165.258184,203.0315 C165.211309,203.023687 165.160528,203.011968 165.098028,203.004156 C164.719122,202.933843 164.781622,202.371343 165.168341,202.371343 C165.219122,202.371343 165.269903,202.371343 165.320684,202.371343 C166.348028,202.371343 167.371465,202.363531 168.390997,202.31275 C170.430059,202.234624 172.441778,202.0315 174.410528,201.664312 C176.371465,201.2815 178.289434,200.754156 180.098028,199.984624 C181.008184,199.613531 181.890997,199.183843 182.730841,198.691656 C183.570684,198.211187 184.390997,197.652593 185.191778,197.074468 C185.390997,196.922124 185.590215,196.7815 185.781622,196.633062 L186.359747,196.164312 C186.738653,195.851812 187.121465,195.5315 187.488653,195.203374 C188.230841,194.543218 188.941778,193.844 189.621465,193.121343 C190.980841,191.664312 192.238653,190.094 193.390997,188.441656 C194.531622,186.824468 195.469122,185.0315 196.238653,183.164312 C196.621465,182.222906 196.961309,181.254156 197.230841,180.261968" id="Path" fill="#4D226D"></path>
            <path d="M160.301153,163.961187 C151.320684,171.554937 148.609747,183.113531 147.660528,181.992437 C143.008184,176.492437 146.519903,165.883062 155.500372,158.2815 C164.480841,150.691656 175.531622,148.984624 180.180059,154.484624 C180.730841,155.121343 169.281622,156.363531 160.301153,163.961187" id="Path" fill="#8557A7"></path>
            <path d="M148.090215,178.652593 C147.969122,178.902593 147.598028,178.871343 147.519903,178.613531 C146.879278,176.601812 147.008184,174.133062 147.910528,171.402593 C149.308965,167.191656 152.348028,162.941656 156.488653,159.441656 C161.808965,154.941656 168.250372,152.402593 173.289434,152.824468 C174.480841,152.922124 175.558965,153.191656 176.508184,153.613531 C176.769903,153.722906 176.738653,154.101812 176.469122,154.183843 C172.379278,155.371343 165.359747,157.691656 159.320684,162.804937 C153.191778,167.984624 149.871465,174.914312 148.090215,178.644781 C148.090215,178.644781 148.090215,178.652593 148.090215,178.652593" id="Path" fill="#A381BD"></path>
            <path d="M149.031622,173.81275 C148.930059,174.004156 148.640997,173.894781 148.680059,173.683843 C148.801153,173.082281 148.969122,172.461187 149.180059,171.824468 C150.500372,167.832281 153.398809,163.804937 157.348028,160.461187 C161.699591,156.773687 166.808965,154.472906 171.140997,154.144781 C171.348028,154.133062 171.418341,154.433843 171.219122,154.511968 C167.238653,156.004156 162.640997,158.242437 158.461309,161.7815 C154.051153,165.511968 151.058965,170.094 149.031622,173.81275" id="Path" fill="#C2ABD3"></path>
            <path d="M81.4417778,133.101812 C74.6292778,151.304937 54.3597468,160.5315 36.1605278,153.722906 C17.9691218,146.914312 8.73084083,126.644781 15.5394338,108.441656 C22.3480278,90.2541563 42.6214648,81.0119683 60.8206838,87.8244683 C79.0199028,94.6330623 88.2503718,114.902593 81.4417778,133.101812" id="Path" fill="#662D91"></path>
            <path d="M48.4808408,88.6838433 C43.9495908,88.6838433 39.4417778,89.6525933 35.1917778,91.5822813 C27.3988088,95.1330623 21.4495908,101.511968 18.4495908,109.5315 C15.4417778,117.56275 15.7503718,126.273687 19.3011528,134.074468 C22.8480278,141.863531 29.2308408,147.81275 37.2503718,150.81275 C45.2699028,153.824468 53.9886528,153.511968 61.7894338,149.961187 C69.5784968,146.414312 75.5316218,140.043218 78.5316218,132.011968 C81.5394338,123.992437 81.2308408,115.273687 77.6800588,107.484624 C74.1292778,99.6838433 67.7581838,93.7346243 59.7308408,90.7346243 C56.0706838,89.3635313 52.2699028,88.6838433 48.4808408,88.6838433 Z M48.5081838,159.082281 C43.9808408,159.082281 39.4417778,158.261968 35.0706838,156.633062 C25.5003718,153.054937 17.8909968,145.953374 13.6488088,136.644781 C9.41052783,127.344 9.05115283,116.941656 12.6292778,107.363531 C16.2191218,97.7815003 23.3089648,90.1721243 32.6214648,85.9338433 C41.9300588,81.6916563 52.3284968,81.3322813 61.9105278,84.9143123 C71.4808408,88.5041563 79.0902148,95.6018123 83.3284968,104.902593 C87.5706838,114.211187 87.9300588,124.613531 84.3480278,134.191656 C80.7581838,143.761968 73.6683408,151.371343 64.3597468,155.613531 C59.3011528,157.922124 53.9105278,159.082281 48.5081838,159.082281" id="Shape" fill="#000000"></path>
            <path d="M73.9886528,123.144781 C74.0902148,122.761968 74.6488088,122.863531 74.6214648,123.254156 C74.6214648,123.261968 74.6214648,123.273687 74.6214648,123.2815 C74.5199028,124.332281 74.3284968,125.371343 74.0784968,126.402593 C73.5589648,128.441656 72.7699028,130.441656 71.6995908,132.304937 C71.1800588,133.211187 70.6097468,134.113531 70.0003718,134.972906 L69.7699028,135.304937 L69.5394338,135.621343 C69.3792778,135.832281 69.2308408,136.054937 69.0589648,136.254156 C68.8909968,136.461187 68.7308408,136.672124 68.5589648,136.883062 L68.0511528,137.492437 C66.6488088,139.101812 65.0902148,140.594 63.3597468,141.863531 C63.1488088,142.023687 62.9183408,142.172124 62.6995908,142.332281 L62.3714648,142.554937 L62.0316218,142.773687 C61.8089648,142.922124 61.5784968,143.074468 61.3480278,143.211187 L61.0003718,143.422124 C60.8792778,143.492437 60.7581838,143.554937 60.6409968,143.621343 C59.6917778,144.144781 58.6995908,144.594 57.6917778,144.972906 C56.6683408,145.344 55.6409968,145.652593 54.5980278,145.883062 C54.0706838,146.004156 53.5511528,146.101812 53.0199028,146.191656 C52.7581838,146.234624 52.4886528,146.273687 52.2308408,146.304937 L51.8284968,146.351812 L51.4417778,146.402593 C49.3206838,146.613531 47.1995908,146.594 45.1214648,146.371343 C44.0706838,146.261968 43.0394338,146.113531 42.0199028,145.914312 C41.9691218,145.902593 41.9183408,145.894781 41.8597468,145.883062 C41.4808408,145.81275 41.5394338,145.242437 41.9300588,145.254156 C41.9808408,145.254156 42.0316218,145.254156 42.0784968,145.254156 C43.1097468,145.254156 44.1292778,145.242437 45.1488088,145.191656 C47.1917778,145.113531 49.1995908,144.914312 51.1683408,144.543218 C53.1292778,144.164312 55.0511528,143.633062 56.8597468,142.863531 C57.7699028,142.484624 58.6488088,142.054937 59.4886528,141.574468 C60.3284968,141.094 61.1488088,140.5315 61.9495908,139.953374 C62.1488088,139.804937 62.3480278,139.664312 62.5394338,139.504156 L63.1214648,139.043218 C63.5003718,138.734624 63.8792778,138.414312 64.2503718,138.082281 C64.9886528,137.422124 65.6917778,136.722906 66.3792778,136.004156 C67.7386528,134.543218 69.0003718,132.972906 70.1488088,131.31275 C71.2894338,129.691656 72.2308408,127.914312 73.0003718,126.043218 C73.3792778,125.101812 73.7191218,124.133062 73.9886528,123.144781" id="Path" fill="#4D226D"></path>
            <path d="M37.0589648,106.844 C28.0784968,114.433843 25.3714648,125.992437 24.4183408,124.871343 C19.7699028,119.371343 23.2816218,108.761968 32.2581838,101.164312 C41.2386528,93.5627503 52.2894338,91.8635313 56.9417778,97.3635313 C57.4808408,98.0041563 46.0394338,99.2424373 37.0589648,106.844" id="Path" fill="#8557A7"></path>
            <path d="M24.8480278,121.5315 C24.7308408,121.7815 24.3597468,121.754156 24.2699028,121.492437 C23.6409968,119.484624 23.7699028,117.011968 24.6683408,114.2815 C26.0706838,110.06275 29.1097468,105.824468 33.2503718,102.324468 C38.5706838,97.8244683 45.0081838,95.2815003 50.0511528,95.7033743 C51.2386528,95.8049373 52.3206838,96.0744683 53.2699028,96.4924373 C53.5316218,96.6018123 53.5003718,96.9846243 53.2308408,97.0627503 C49.1409968,98.2541563 42.1214648,100.56275 36.0784968,105.672124 C29.9495908,110.863531 26.6292778,117.793218 24.8480278,121.523687 C24.8480278,121.523687 24.8480278,121.523687 24.8480278,121.5315" id="Path" fill="#A381BD"></path>
            <path d="M25.7894338,116.691656 C25.6917778,116.883062 25.3988088,116.773687 25.4417778,116.56275 C25.5589648,115.961187 25.7308408,115.344 25.9417778,114.703374 C27.2581838,110.711187 30.1605278,106.683843 34.0980278,103.344 C38.4613088,99.6525933 43.5589648,97.3440003 47.8988088,97.0236873 C48.1097468,97.0119683 48.1800588,97.3127503 47.9808408,97.3947813 C44.0003718,98.8830623 39.3988088,101.121343 35.2191218,104.664312 C30.8089648,108.394781 27.8206838,112.961187 25.7894338,116.691656" id="Path" fill="#C2ABD3"></path>
            <path d="M118.019903,260.703374 C111.211309,278.894781 90.9417778,288.133062 72.7386528,281.324468 C54.5394338,274.511968 45.3089648,254.242437 52.1214648,236.043218 C58.9183408,217.844 79.1995908,208.613531 97.3909968,215.422124 C115.590215,222.234624 124.820684,242.504156 118.019903,260.703374" id="Path" fill="#662D91"></path>
            <path d="M85.0511528,216.273687 C80.5199028,216.273687 76.0081838,217.242437 71.7699028,219.183843 C63.9691218,222.734624 58.0316218,229.101812 55.0199028,237.133062 C52.0199028,245.152593 52.3206838,253.871343 55.8792778,261.664312 C59.4300588,269.461187 65.8011528,275.414312 73.8284968,278.414312 C81.8480278,281.414312 90.5706838,281.113531 98.3597468,277.56275 C106.160528,274.011968 112.109747,267.633062 115.109747,259.613531 C118.109747,251.582281 117.808965,242.871343 114.258184,235.074468 C110.711309,227.2815 104.328497,221.332281 96.3089648,218.324468 C92.6488088,216.961187 88.8402148,216.273687 85.0511528,216.273687 Z M85.0784968,286.672124 C80.5589648,286.672124 76.0199028,285.863531 71.6488088,284.222906 C62.0706838,280.644781 54.4613088,273.543218 50.2308408,264.242437 C45.9886528,254.933843 45.6292778,244.5315 49.2113088,234.953374 C52.7894338,225.383062 59.8909968,217.773687 69.1995908,213.5315 C78.5003718,209.293218 88.8988088,208.933843 98.4808408,212.511968 C108.058965,216.094 115.668341,223.191656 119.910528,232.504156 C124.148809,241.81275 124.508184,252.211187 120.918341,261.7815 C117.340215,271.363531 110.238653,278.972906 100.941778,283.211187 C95.8714648,285.511968 90.4886528,286.672124 85.0784968,286.672124" id="Shape" fill="#000000"></path>
            <path d="M110.558965,250.742437 C110.668341,250.363531 111.230841,250.461187 111.199591,250.851812 C111.191778,250.863531 111.191778,250.871343 111.191778,250.883062 C111.098028,251.933843 110.910528,252.972906 110.660528,253.992437 C110.140997,256.043218 109.348028,258.043218 108.281622,259.894781 C107.750372,260.81275 107.191778,261.703374 106.578497,262.574468 L106.348028,262.894781 L106.109747,263.211187 C105.949591,263.433843 105.801153,263.652593 105.629278,263.851812 C105.469122,264.06275 105.301153,264.273687 105.140997,264.484624 L104.621465,265.094 C103.230841,266.703374 101.660528,268.183843 99.9300588,269.461187 C99.7191218,269.621343 99.5003718,269.773687 99.2816218,269.922124 L98.9495908,270.152593 L98.6097468,270.371343 C98.3792778,270.523687 98.1605278,270.664312 97.9183408,270.804937 L97.5706838,271.011968 C97.4613088,271.082281 97.3402148,271.152593 97.2191218,271.211187 C96.2581838,271.734624 95.2699028,272.191656 94.2581838,272.56275 C93.2503718,272.941656 92.2191218,273.254156 91.1683408,273.484624 C90.6488088,273.594 90.1214648,273.703374 89.5980278,273.793218 C89.3284968,273.832281 89.0706838,273.871343 88.8089648,273.902593 L88.4105278,273.953374 L88.0081838,273.992437 C85.8988088,274.211187 83.7816218,274.191656 81.6917778,273.972906 C80.6488088,273.863531 79.6214648,273.711187 78.5902148,273.511968 C78.5394338,273.504156 78.4886528,273.492437 78.4417778,273.484624 C78.0589648,273.414312 78.1214648,272.844 78.5081838,272.844 C78.5589648,272.844 78.6097468,272.844 78.6605278,272.844 C79.6917778,272.851812 80.7113088,272.844 81.7308408,272.793218 C83.7699028,272.711187 85.7816218,272.511968 87.7386528,272.133062 C89.6995908,271.754156 91.6292778,271.222906 93.4417778,270.461187 C94.3402148,270.082281 95.2191218,269.652593 96.0589648,269.164312 C96.9105278,268.691656 97.7308408,268.121343 98.5199028,267.543218 C98.7191218,267.402593 98.9183408,267.254156 99.1214648,267.101812 L99.6995908,266.644781 C100.078497,266.324468 100.461309,266.004156 100.828497,265.672124 C101.570684,265.023687 102.269903,264.31275 102.961309,263.594 C104.320684,262.144781 105.570684,260.574468 106.719122,258.914312 C107.859747,257.293218 108.808965,255.511968 109.570684,253.644781 C109.961309,252.703374 110.289434,251.734624 110.558965,250.742437" id="Path" fill="#4D226D"></path>
            <path d="M73.6409968,234.433843 C64.6605278,242.0315 61.9495908,253.594 61.0003718,252.461187 C56.3480278,246.972906 59.8597468,236.351812 68.8402148,228.761968 C77.8206838,221.164312 88.8714648,219.461187 93.5199028,224.953374 C94.0589648,225.601812 82.6214648,226.844 73.6409968,234.433843" id="Path" fill="#8557A7"></path>
            <path d="M61.4183408,249.121343 C61.3011528,249.383062 60.9417778,249.351812 60.8480278,249.082281 C60.2191218,247.082281 60.3480278,244.613531 61.2503718,241.883062 C62.6488088,237.664312 65.6917778,233.414312 69.8206838,229.922124 C75.1488088,225.414312 81.5902148,222.883062 86.6214648,223.304937 C87.8206838,223.402593 88.8988088,223.664312 89.8402148,224.082281 C90.0980278,224.203374 90.0706838,224.582281 89.8011528,224.664312 C85.7191218,225.851812 78.6995908,228.164312 72.6605278,233.273687 C66.5316218,238.453374 63.2113088,245.394781 61.4183408,249.121343" id="Path" fill="#A381BD"></path>
            <path d="M62.3714648,244.2815 C62.2699028,244.472906 61.9808408,244.371343 62.0199028,244.164312 C62.1409968,243.554937 62.3011528,242.933843 62.5081838,242.293218 C63.8284968,238.31275 66.7308408,234.273687 70.6800588,230.941656 C75.0394338,227.254156 80.1409968,224.941656 84.4691218,224.621343 C84.6917778,224.601812 84.7581838,224.914312 84.5589648,224.992437 C80.5706838,226.484624 75.9808408,228.722906 71.8011528,232.254156 C67.3792778,235.992437 64.3988088,240.56275 62.3714648,244.2815" id="Path" fill="#C2ABD3"></path>
            <path d="M255.211309,211.242437 C248.398809,229.441656 228.129278,238.683843 209.941778,231.871343 C191.738653,225.06275 182.500372,204.793218 189.308965,186.594 C196.121465,168.394781 216.390997,159.164312 234.590215,165.972906 C252.789434,172.7815 262.019903,193.054937 255.211309,211.242437" id="Path" fill="#662D91"></path>
            <path d="M222.301153,166.844 C209.301153,166.844 197.039434,174.804937 192.219122,187.683843 C189.219122,195.703374 189.519903,204.422124 193.070684,212.211187 C196.621465,220.011968 203.000372,225.961187 211.019903,228.961187 C227.590215,235.164312 246.109747,226.722906 252.308965,210.164312 C258.500372,193.594 250.070684,175.074468 233.500372,168.871343 C229.808965,167.492437 226.019903,166.844 222.301153,166.844 Z M222.219122,237.203374 C217.769903,237.203374 213.250372,236.422124 208.848028,234.773687 C199.269903,231.191656 191.660528,224.094 187.418341,214.793218 C183.180059,205.484624 182.820684,195.082281 186.398809,185.504156 C193.801153,165.734624 215.898809,155.664312 235.680059,163.06275 C255.449591,170.461187 265.519903,192.56275 258.121465,212.332281 C252.371465,227.703374 237.738653,237.203374 222.219122,237.203374" id="Shape" fill="#000000"></path>
            <path d="M247.758184,201.293218 C247.859747,200.914312 248.430059,201.011968 248.390997,201.402593 C248.390997,201.414312 248.390997,201.422124 248.390997,201.433843 C248.289434,202.484624 248.109747,203.523687 247.848028,204.543218 C247.340215,206.594 246.551153,208.594 245.469122,210.441656 C244.949591,211.363531 244.379278,212.254156 243.769903,213.121343 L243.308965,213.761968 C243.148809,213.984624 243.000372,214.191656 242.828497,214.402593 C242.660528,214.613531 242.500372,214.824468 242.328497,215.023687 L241.820684,215.644781 C240.418341,217.254156 238.859747,218.734624 237.129278,220.004156 C236.918341,220.172124 236.691778,220.324468 236.469122,220.472906 L236.140997,220.703374 L235.801153,220.922124 C235.578497,221.06275 235.359747,221.211187 235.121465,221.351812 L234.769903,221.56275 C234.648809,221.633062 234.531622,221.691656 234.410528,221.761968 C233.461309,222.2815 232.469122,222.734624 231.461309,223.113531 C230.441778,223.484624 229.410528,223.804937 228.371465,224.0315 C227.840215,224.144781 227.320684,224.254156 226.789434,224.344 C226.531622,224.383062 226.269903,224.422124 226.000372,224.453374 L225.598028,224.504156 L225.211309,224.543218 C223.090215,224.761968 220.969122,224.734624 218.890997,224.523687 C217.848028,224.414312 216.808965,224.254156 215.789434,224.06275 C215.738653,224.054937 215.691778,224.043218 215.640997,224.0315 C215.250372,223.953374 215.308965,223.394781 215.699591,223.394781 C215.750372,223.394781 215.801153,223.394781 215.848028,223.394781 C216.879278,223.402593 217.910528,223.394781 218.918341,223.344 C220.961309,223.261968 222.980841,223.06275 224.941778,222.683843 C226.898809,222.304937 228.820684,221.773687 230.629278,221.011968 C231.539434,220.633062 232.418341,220.203374 233.258184,219.711187 C234.098028,219.242437 234.918341,218.672124 235.719122,218.094 C235.918341,217.941656 236.121465,217.804937 236.308965,217.652593 L236.898809,217.191656 C237.281622,216.871343 237.648809,216.554937 238.019903,216.222906 C238.758184,215.574468 239.469122,214.863531 240.148809,214.144781 C241.508184,212.691656 242.769903,211.121343 243.918341,209.461187 C245.058965,207.844 246.000372,206.06275 246.769903,204.191656 C247.148809,203.242437 247.488653,202.2815 247.758184,201.293218" id="Path" fill="#4D226D"></path>
            <path d="M210.828497,184.984624 C201.848028,192.582281 199.140997,204.144781 198.191778,203.011968 C193.539434,197.523687 197.051153,186.902593 206.031622,179.31275 C215.019903,171.711187 226.058965,170.011968 230.711309,175.504156 C231.258184,176.152593 219.808965,177.394781 210.828497,184.984624" id="Path" fill="#8557A7"></path>
            <path d="M198.621465,199.672124 C198.500372,199.922124 198.129278,199.902593 198.051153,199.633062 C197.418341,197.633062 197.539434,195.164312 198.449591,192.422124 C199.840215,188.211187 202.879278,183.961187 207.019903,180.472906 C212.340215,175.961187 218.781622,173.422124 223.820684,173.851812 C225.008184,173.953374 226.090215,174.211187 227.039434,174.633062 C227.301153,174.754156 227.269903,175.133062 227.000372,175.211187 C222.910528,176.402593 215.890997,178.711187 209.848028,183.824468 C203.730841,189.004156 200.398809,195.941656 198.621465,199.672124" id="Path" fill="#A381BD"></path>
            <path d="M199.558965,194.832281 C199.461309,195.023687 199.168341,194.922124 199.211309,194.711187 C199.328497,194.101812 199.500372,193.484624 199.711309,192.844 C201.031622,188.863531 203.930059,184.824468 207.879278,181.484624 C212.238653,177.804937 217.340215,175.492437 221.668341,175.172124 C221.890997,175.152593 221.961309,175.461187 221.750372,175.5315 C217.769903,177.0315 213.168341,179.273687 208.988653,182.804937 C204.578497,186.543218 201.590215,191.113531 199.558965,194.832281" id="Path" fill="#C2ABD3"></path>
            <path d="M92.9417778,181.851812 C86.1292778,200.054937 65.8597468,209.2815 47.6605278,202.472906 C29.4613088,195.664312 20.2308408,175.394781 27.0394338,157.191656 C33.8480278,139.004156 54.1214648,129.761968 72.3206838,136.574468 C90.5081838,143.383062 99.7503718,163.652593 92.9417778,181.851812" id="Path" fill="#662D91"></path>
            <path d="M59.9691218,137.433843 C55.4495908,137.433843 50.9300588,138.402593 46.6917778,140.332281 C38.8988088,143.883062 32.9495908,150.261968 29.9495908,158.2815 C23.7503718,174.851812 32.1800588,193.371343 48.7503718,199.56275 C56.7699028,202.574468 65.4886528,202.261968 73.2816218,198.711187 C81.0784968,195.164312 87.0316218,188.793218 90.0316218,180.761968 C93.0316218,172.742437 92.7308408,164.023687 89.1800588,156.222906 C85.6292778,148.433843 79.2503718,142.484624 71.2308408,139.484624 C67.5706838,138.113531 63.7699028,137.433843 59.9691218,137.433843 Z M60.0081838,207.832281 C55.4808408,207.832281 50.9417778,207.011968 46.5706838,205.383062 C26.8011528,197.984624 16.7308408,175.883062 24.1292778,156.113531 C27.7113088,146.5315 34.8089648,138.922124 44.1214648,134.683843 C53.4300588,130.441656 63.8206838,130.082281 73.3988088,133.664312 C82.9808408,137.254156 90.5902148,144.351812 94.8284968,153.652593 C99.0706838,162.961187 99.4300588,173.363531 95.8480278,182.941656 C92.2581838,192.511968 85.1605278,200.121343 75.8597468,204.363531 C70.7894338,206.672124 65.4105278,207.832281 60.0081838,207.832281" id="Shape" fill="#000000"></path>
            <path d="M85.4886528,171.894781 C85.5902148,171.511968 86.1488088,171.613531 86.1214648,172.004156 C86.1214648,172.011968 86.1214648,172.023687 86.1097468,172.0315 C86.0199028,173.082281 85.8284968,174.121343 85.5784968,175.144781 C85.0589648,177.191656 84.2699028,179.191656 83.1995908,181.054937 C82.6683408,181.961187 82.1097468,182.863531 81.5003718,183.722906 L81.2699028,184.054937 L81.0316218,184.371343 C80.8714648,184.582281 80.7191218,184.804937 80.5589648,185.004156 C80.3909968,185.211187 80.2308408,185.422124 80.0589648,185.633062 L79.5394338,186.242437 C78.1488088,187.851812 76.5784968,189.344 74.8480278,190.613531 C74.6409968,190.773687 74.4183408,190.922124 74.1995908,191.082281 L73.8714648,191.304937 L73.5316218,191.523687 C73.3011528,191.672124 73.0784968,191.824468 72.8480278,191.961187 L72.4886528,192.172124 C72.3792778,192.242437 72.2581838,192.304937 72.1409968,192.363531 C71.1917778,192.894781 70.1995908,193.344 69.1917778,193.722906 C68.1683408,194.094 67.1409968,194.402593 66.0902148,194.633062 C65.5706838,194.754156 65.0511528,194.851812 64.5199028,194.941656 C64.2581838,194.984624 63.9886528,195.023687 63.7308408,195.054937 L63.3284968,195.101812 L62.9417778,195.152593 C60.8206838,195.363531 58.6995908,195.344 56.6097468,195.121343 C55.5706838,195.011968 54.5394338,194.863531 53.5199028,194.664312 C53.4613088,194.652593 53.4105278,194.644781 53.3597468,194.633062 C52.9808408,194.56275 53.0394338,193.992437 53.4300588,194.004156 C53.4808408,194.004156 53.5316218,194.004156 53.5784968,194.004156 C54.6097468,194.004156 55.6292778,193.992437 56.6488088,193.941656 C58.6917778,193.863531 60.6995908,193.664312 62.6683408,193.293218 C64.6292778,192.914312 66.5511528,192.383062 68.3597468,191.613531 C69.2581838,191.234624 70.1488088,190.804937 70.9886528,190.324468 C71.8284968,189.844 72.6488088,189.2815 73.4495908,188.703374 C73.6488088,188.554937 73.8480278,188.402593 74.0394338,188.254156 L74.6214648,187.793218 C75.0003718,187.484624 75.3792778,187.164312 75.7503718,186.832281 C76.4886528,186.172124 77.1917778,185.472906 77.8792778,184.754156 C79.2386528,183.293218 80.4886528,181.722906 81.6488088,180.06275 C82.7894338,178.441656 83.7308408,176.664312 84.4886528,174.793218 C84.8792778,173.851812 85.2113088,172.883062 85.4886528,171.894781" id="Path" fill="#4D226D"></path>
            <path d="M48.5589648,155.594 C39.5784968,163.183843 36.8714648,174.742437 35.9183408,173.621343 C31.2699028,168.121343 34.7816218,157.511968 43.7581838,149.914312 C52.7386528,142.31275 63.7894338,140.613531 68.4417778,146.113531 C68.9808408,146.754156 57.5394338,147.992437 48.5589648,155.594" id="Path" fill="#8557A7"></path>
            <path d="M36.3402148,170.2815 C36.2191218,170.5315 35.8597468,170.504156 35.7699028,170.242437 C35.1409968,168.234624 35.2699028,165.761968 36.1683408,163.0315 C37.5706838,158.81275 40.6097468,154.574468 44.7386528,151.074468 C50.0706838,146.574468 56.5081838,144.0315 61.5394338,144.453374 C62.7386528,144.554937 63.8206838,144.824468 64.7581838,145.242437 C65.0199028,145.351812 65.0003718,145.734624 64.7191218,145.81275 C60.6409968,147.004156 53.6214648,149.31275 47.5784968,154.422124 C41.4495908,159.613531 38.1292778,166.543218 36.3480278,170.273687 C36.3480278,170.273687 36.3402148,170.273687 36.3402148,170.2815" id="Path" fill="#A381BD"></path>
            <path d="M37.2894338,165.441656 C37.1917778,165.633062 36.8988088,165.523687 36.9417778,165.31275 C37.0589648,164.711187 37.2191218,164.094 37.4417778,163.453374 C38.7503718,159.461187 41.6488088,155.433843 45.5980278,152.094 C49.9613088,148.402593 55.0589648,146.094 59.3909968,145.773687 C59.6097468,145.761968 59.6800588,146.06275 59.4808408,146.144781 C55.4886528,147.633062 50.8988088,149.871343 46.7191218,153.414312 C42.3089648,157.144781 39.3206838,161.711187 37.2894338,165.441656" id="Path" fill="#C2ABD3"></path>
            <path d="M146.269903,214.933843 C139.461309,233.133062 119.191778,242.363531 100.988653,235.56275 C82.7894338,228.754156 73.5589648,208.484624 80.3597468,190.2815 C87.1683408,172.082281 107.441778,162.851812 125.640997,169.664312 C143.840215,176.461187 153.070684,196.742437 146.269903,214.933843" id="Path" fill="#662D91"></path>
            <path d="M113.348028,170.5315 C100.348028,170.5315 88.0902148,178.492437 83.2699028,191.371343 C77.0706838,207.933843 85.5081838,226.453374 102.078497,232.652593 C110.098028,235.652593 118.808965,235.351812 126.609747,231.804937 C134.410528,228.254156 140.359747,221.871343 143.359747,213.851812 C146.359747,205.824468 146.058965,197.113531 142.508184,189.31275 C138.961309,181.511968 132.578497,175.574468 124.558965,172.56275 C120.859747,171.183843 117.078497,170.5315 113.348028,170.5315 Z M113.328497,240.914312 C108.808965,240.914312 104.269903,240.101812 99.8988088,238.461187 C80.1292778,231.074468 70.0589648,208.961187 77.4613088,189.191656 C84.8480278,169.422124 106.961309,159.351812 126.730841,166.754156 C136.308965,170.332281 143.918341,177.433843 148.160528,186.742437 C152.398809,196.043218 152.758184,206.441656 149.168341,216.023687 C145.590215,225.601812 138.488653,233.211187 129.180059,237.453374 C124.121465,239.754156 118.730841,240.914312 113.328497,240.914312" id="Shape" fill="#000000"></path>
            <path d="M138.808965,204.984624 C138.918341,204.601812 139.480841,204.703374 139.441778,205.094 C139.441778,205.101812 139.441778,205.113531 139.441778,205.121343 C139.348028,206.164312 139.160528,207.203374 138.898809,208.234624 C138.390997,210.2815 137.598028,212.273687 136.531622,214.133062 C136.000372,215.054937 135.441778,215.941656 134.820684,216.81275 L134.598028,217.133062 L134.359747,217.453374 C134.199591,217.672124 134.051153,217.883062 133.879278,218.094 C133.719122,218.304937 133.551153,218.511968 133.379278,218.711187 L132.871465,219.324468 C131.480841,220.941656 129.910528,222.422124 128.180059,223.691656 C127.969122,223.863531 127.750372,224.011968 127.531622,224.164312 L127.191778,224.394781 L126.859747,224.613531 C126.629278,224.754156 126.410528,224.902593 126.168341,225.043218 L125.820684,225.254156 C125.699591,225.324468 125.578497,225.383062 125.469122,225.453374 C124.508184,225.972906 123.519903,226.422124 122.508184,226.804937 C121.500372,227.172124 120.469122,227.492437 119.418341,227.722906 C118.898809,227.832281 118.371465,227.941656 117.848028,228.023687 C117.578497,228.074468 117.320684,228.113531 117.051153,228.144781 L116.660528,228.191656 L116.258184,228.234624 C114.140997,228.453374 112.019903,228.422124 109.941778,228.203374 C108.898809,228.094 107.871465,227.941656 106.840215,227.754156 C106.789434,227.742437 106.738653,227.734624 106.691778,227.722906 C106.308965,227.644781 106.359747,227.082281 106.750372,227.082281 C106.808965,227.082281 106.859747,227.082281 106.910528,227.082281 C107.941778,227.094 108.961309,227.074468 109.980841,227.0315 C112.008184,226.941656 114.031622,226.754156 115.988653,226.371343 C117.949591,225.992437 119.871465,225.461187 121.680059,224.703374 C122.590215,224.324468 123.469122,223.894781 124.308965,223.402593 C125.148809,222.922124 125.980841,222.363531 126.769903,221.7815 C126.969122,221.633062 127.168341,221.492437 127.371465,221.344 L127.949591,220.883062 C128.328497,220.56275 128.711309,220.242437 129.078497,219.914312 C129.820684,219.254156 130.519903,218.554937 131.211309,217.832281 C132.558965,216.371343 133.820684,214.81275 134.969122,213.152593 C136.109747,211.5315 137.058965,209.754156 137.820684,207.883062 C138.199591,206.933843 138.539434,205.972906 138.808965,204.984624" id="Path" fill="#4D226D"></path>
            <path d="M101.890997,188.672124 C92.9105278,196.273687 90.1917778,207.824468 89.2386528,206.703374 C84.5980278,201.203374 88.1097468,190.594 97.0902148,183.004156 C106.070684,175.402593 117.121465,173.703374 121.769903,179.191656 C122.308965,179.844 110.871465,181.074468 101.890997,188.672124" id="Path" fill="#8557A7"></path>
            <path d="M89.6683408,203.363531 C89.5511528,203.613531 89.1800588,203.594 89.0980278,203.324468 C88.4691218,201.324468 88.5980278,198.844 89.5003718,196.113531 C90.8909968,191.902593 93.9417778,187.652593 98.0706838,184.164312 C103.398809,179.652593 109.828497,177.113531 114.871465,177.543218 C116.070684,177.633062 117.148809,177.902593 118.090215,178.324468 C118.348028,178.441656 118.320684,178.81275 118.051153,178.894781 C113.969122,180.082281 106.949591,182.402593 100.910528,187.511968 C94.7816218,192.691656 91.4613088,199.633062 89.6683408,203.351812 C89.6683408,203.363531 89.6683408,203.363531 89.6683408,203.363531" id="Path" fill="#A381BD"></path>
            <path d="M90.6214648,198.523687 C90.5199028,198.711187 90.2308408,198.613531 90.2699028,198.402593 C90.3909968,197.793218 90.5511528,197.172124 90.7581838,196.5315 C92.0784968,192.554937 94.9808408,188.511968 98.9300588,185.172124 C103.289434,181.492437 108.390997,179.183843 112.719122,178.863531 C112.941778,178.844 113.008184,179.152593 112.801153,179.222906 C108.820684,180.722906 104.230841,182.961187 100.051153,186.492437 C95.6292778,190.234624 92.6409968,194.804937 90.6214648,198.523687" id="Path" fill="#C2ABD3"></path>
            <path d="M71.2386528,285.344 C64.4300588,303.543218 44.1605278,312.773687 25.9613088,305.961187 C7.75818383,299.152593 -1.46837817,278.883062 5.34021483,260.683843 C12.1409968,242.484624 32.4183408,233.254156 50.6097468,240.06275 C68.8089648,246.871343 78.0394338,267.144781 71.2386528,285.344" id="Path" fill="#662D91"></path>
            <path d="M38.3206838,240.933843 C25.3206838,240.933843 13.0589648,248.894781 8.23865283,261.773687 C2.05115283,278.344 10.4808408,296.851812 27.0511528,303.054937 C43.6097468,309.254156 62.1292778,300.81275 68.3284968,284.254156 C71.3284968,276.222906 71.0316218,267.511968 67.4808408,259.711187 C63.9300588,251.922124 57.5511528,245.972906 49.5199028,242.972906 C45.8284968,241.594 42.0511528,240.933843 38.3206838,240.933843 Z M38.2386528,311.304937 C33.8011528,311.304937 29.2816218,310.511968 24.8714648,308.871343 C5.09802783,301.472906 -4.96837817,279.371343 2.43005883,259.594 C9.82068383,239.824468 31.9300588,229.754156 51.6995908,237.152593 C61.2816218,240.742437 68.8909968,247.832281 73.1292778,257.144781 C77.3714648,266.453374 77.7308408,276.851812 74.1409968,286.422124 C68.3909968,301.793218 53.7581838,311.304937 38.2386528,311.304937" id="Shape" fill="#000000"></path>
            <path d="M63.7816218,275.383062 C63.8909968,275.004156 64.4495908,275.101812 64.4105278,275.492437 C64.4105278,275.504156 64.4105278,275.511968 64.4105278,275.523687 C64.3206838,276.574468 64.1292778,277.613531 63.8714648,278.633062 C63.3597468,280.683843 62.5706838,282.683843 61.5003718,284.543218 C60.9691218,285.453374 60.4105278,286.344 59.8011528,287.211187 L59.5706838,287.543218 L59.3284968,287.863531 C59.1683408,288.074468 59.0199028,288.293218 58.8480278,288.492437 C58.6917778,288.703374 58.5199028,288.914312 58.3480278,289.121343 L57.8402148,289.734624 C56.4495908,291.344 54.8792778,292.824468 53.1488088,294.101812 C52.9417778,294.261968 52.7191218,294.414312 52.5003718,294.56275 L52.1683408,294.793218 L51.8284968,295.011968 C51.5980278,295.164312 51.3792778,295.304937 51.1409968,295.441656 L50.7894338,295.652593 C50.6800588,295.722906 50.5589648,295.793218 50.4417778,295.851812 C49.4808408,296.371343 48.4886528,296.832281 47.4808408,297.203374 C46.4691218,297.582281 45.4417778,297.894781 44.3909968,298.121343 C43.8714648,298.242437 43.3402148,298.344 42.8206838,298.433843 C42.5511528,298.472906 42.2894338,298.511968 42.0199028,298.543218 L41.6292778,298.594 L41.2308408,298.633062 C39.1097468,298.851812 36.9886528,298.824468 34.9105278,298.613531 C33.8714648,298.504156 32.8402148,298.351812 31.8089648,298.152593 C31.7581838,298.144781 31.7113088,298.133062 31.6605278,298.121343 C31.2816218,298.054937 31.3284968,297.484624 31.7308408,297.492437 C31.7816218,297.492437 31.8284968,297.492437 31.8792778,297.492437 C32.9105278,297.492437 33.9300588,297.484624 34.9495908,297.433843 C36.9808408,297.351812 39.0003718,297.152593 40.9613088,296.773687 C42.9183408,296.394781 44.8402148,295.863531 46.6488088,295.101812 C47.5589648,294.722906 48.4417778,294.293218 49.2816218,293.804937 C50.1292778,293.332281 50.9495908,292.773687 51.7386528,292.191656 C51.9417778,292.043218 52.1409968,291.894781 52.3402148,291.742437 L52.9183408,291.2815 C53.3011528,290.961187 53.6800588,290.652593 54.0511528,290.31275 C54.7894338,289.664312 55.4886528,288.953374 56.1800588,288.234624 C57.5316218,286.7815 58.7894338,285.211187 59.9417778,283.554937 C61.0784968,281.933843 62.0316218,280.152593 62.7894338,278.2815 C63.1683408,277.344 63.5081838,276.371343 63.7816218,275.383062" id="Path" fill="#4D226D"></path>
            <path d="M26.8597468,259.074468 C17.8792778,266.672124 15.1605278,278.234624 14.2113088,277.101812 C9.57068383,271.613531 13.0784968,260.992437 22.0589648,253.402593 C31.0394338,245.804937 42.0902148,244.101812 46.7386528,249.594 C47.2816218,250.242437 35.8402148,251.484624 26.8597468,259.074468" id="Path" fill="#8557A7"></path>
            <path d="M14.6409968,273.761968 C14.5199028,274.023687 14.1488088,273.992437 14.0706838,273.722906 C13.4417778,271.722906 13.5706838,269.254156 14.4691218,266.523687 C15.8597468,262.304937 18.9105278,258.054937 23.0394338,254.56275 C28.3714648,250.054937 34.8089648,247.523687 39.8402148,247.941656 C41.0394338,248.043218 42.1214648,248.304937 43.0589648,248.722906 C43.3206838,248.844 43.2894338,249.222906 43.0199028,249.304937 C38.9417778,250.492437 31.9183408,252.804937 25.8792778,257.914312 C19.7503718,263.094 16.4300588,270.0315 14.6409968,273.761968" id="Path" fill="#A381BD"></path>
            <path d="M15.5902148,268.922124 C15.4886528,269.113531 15.1995908,269.011968 15.2386528,268.804937 C15.3597468,268.203374 15.5199028,267.574468 15.7308408,266.941656 C17.0511528,262.953374 19.9495908,258.914312 23.8988088,255.582281 C28.2581838,251.894781 33.3597468,249.582281 37.6917778,249.261968 C37.9105278,249.242437 37.9808408,249.554937 37.7699028,249.633062 C33.7894338,251.121343 29.1995908,253.363531 25.0199028,256.902593 C20.5980278,260.633062 17.6097468,265.203374 15.5902148,268.922124" id="Path" fill="#C2ABD3"></path>
            <path d="M208.691778,235.183843 C201.890997,253.383062 181.621465,262.613531 163.418341,255.804937 C145.219122,249.004156 135.988653,228.722906 142.801153,210.5315 C149.598028,192.332281 169.871465,183.094 188.070684,189.902593 C206.269903,196.711187 215.500372,216.984624 208.691778,235.183843" id="Path" fill="#662D91"></path>
            <path d="M175.730841,190.761968 C171.199591,190.761968 166.691778,191.734624 162.449591,193.664312 C154.648809,197.211187 148.699591,203.594 145.699591,211.613531 C142.699591,219.644781 143.000372,228.351812 146.551153,236.152593 C150.098028,243.953374 156.480841,249.894781 164.508184,252.902593 C172.531622,255.902593 181.238653,255.601812 189.039434,252.043218 C196.840215,248.492437 202.789434,242.121343 205.789434,234.094 C211.988653,217.5315 203.551153,199.011968 186.980841,192.81275 C183.328497,191.441656 179.519903,190.761968 175.730841,190.761968 Z M175.758184,261.164312 C171.238653,261.164312 166.699591,260.344 162.328497,258.711187 C152.750372,255.133062 145.140997,248.0315 140.898809,238.722906 C136.668341,229.422124 136.308965,219.023687 139.890997,209.441656 C143.469122,199.863531 150.570684,192.254156 159.879278,188.011968 C169.180059,183.773687 179.578497,183.414312 189.160528,187.004156 C208.930059,194.394781 219.000372,216.504156 211.598028,236.273687 C208.019903,245.851812 200.918341,253.453374 191.609747,257.691656 C186.551153,260.004156 181.160528,261.164312 175.758184,261.164312" id="Shape" fill="#000000"></path>
            <path d="M201.238653,225.222906 C201.348028,224.851812 201.910528,224.941656 201.871465,225.332281 C201.871465,225.344 201.871465,225.351812 201.871465,225.363531 C201.781622,226.414312 201.590215,227.453374 201.328497,228.484624 C200.820684,230.5315 200.031622,232.523687 198.961309,234.383062 C198.430059,235.293218 197.871465,236.191656 197.258184,237.054937 L197.031622,237.383062 L196.789434,237.703374 C196.629278,237.914312 196.480841,238.133062 196.308965,238.344 C196.148809,238.543218 195.980841,238.754156 195.808965,238.961187 L195.301153,239.574468 C193.910528,241.183843 192.340215,242.672124 190.609747,243.941656 C190.398809,244.113531 190.180059,244.254156 189.961309,244.414312 L189.621465,244.644781 L189.289434,244.863531 C189.058965,245.004156 188.840215,245.152593 188.598028,245.293218 L188.250372,245.504156 C188.140997,245.574468 188.008184,245.633062 187.898809,245.703374 C186.941778,246.222906 185.949591,246.672124 184.941778,247.054937 C183.930059,247.422124 182.898809,247.734624 181.848028,247.961187 C181.328497,248.082281 180.801153,248.191656 180.281622,248.273687 C180.008184,248.31275 179.750372,248.351812 179.480841,248.394781 L179.090215,248.441656 L178.691778,248.484624 C176.570684,248.691656 174.449591,248.672124 172.371465,248.453374 C171.328497,248.344 170.301153,248.191656 169.269903,247.992437 C169.219122,247.992437 169.168341,247.972906 169.121465,247.961187 C168.738653,247.894781 168.789434,247.332281 169.180059,247.332281 C169.230841,247.332281 169.289434,247.332281 169.340215,247.332281 C170.371465,247.332281 171.390997,247.324468 172.410528,247.2815 C174.441778,247.191656 176.461309,246.992437 178.418341,246.621343 C180.379278,246.242437 182.301153,245.711187 184.109747,244.941656 C185.019903,244.574468 185.898809,244.144781 186.738653,243.652593 C187.578497,243.172124 188.410528,242.613531 189.199591,242.0315 C189.398809,241.883062 189.598028,241.742437 189.801153,241.594 L190.379278,241.133062 C190.758184,240.81275 191.140997,240.492437 191.508184,240.164312 C192.250372,239.504156 192.949591,238.804937 193.640997,238.082281 C194.988653,236.621343 196.250372,235.054937 197.398809,233.402593 C198.539434,231.7815 199.488653,229.992437 200.250372,228.121343 C200.629278,227.183843 200.969122,226.211187 201.238653,225.222906" id="Path" fill="#4D226D"></path>
            <path d="M164.320684,208.922124 C155.340215,216.511968 152.621465,228.074468 151.668341,226.953374 C147.019903,221.453374 150.539434,210.844 159.519903,203.242437 C168.500372,195.652593 179.551153,193.941656 184.199591,199.441656 C184.738653,200.082281 173.301153,201.324468 164.320684,208.922124" id="Path" fill="#8557A7"></path>
            <path d="M152.098028,223.613531 C151.980841,223.863531 151.609747,223.832281 151.531622,223.574468 C150.898809,221.56275 151.019903,219.094 151.930059,216.363531 C153.320684,212.152593 156.371465,207.902593 160.500372,204.402593 C165.828497,199.902593 172.258184,197.363531 177.301153,197.7815 C178.500372,197.883062 179.578497,198.152593 180.519903,198.574468 C180.781622,198.683843 180.750372,199.06275 180.480841,199.144781 C176.398809,200.332281 169.379278,202.652593 163.340215,207.761968 C157.211309,212.941656 153.890997,219.883062 152.098028,223.601812 C152.098028,223.601812 152.098028,223.613531 152.098028,223.613531" id="Path" fill="#A381BD"></path>
            <path d="M153.051153,218.773687 C152.941778,218.961187 152.648809,218.851812 152.699591,218.644781 C152.820684,218.043218 152.980841,217.422124 153.191778,216.7815 C154.508184,212.793218 157.410528,208.761968 161.359747,205.422124 C165.719122,201.734624 170.820684,199.433843 175.148809,199.113531 C175.371465,199.094 175.441778,199.394781 175.230841,199.472906 C171.250372,200.961187 166.660528,203.203374 162.480841,206.742437 C158.058965,210.472906 155.070684,215.054937 153.051153,218.773687" id="Path" fill="#C2ABD3"></path>
            <path d="M162.211309,269.734624 C155.398809,287.922124 135.129278,297.164312 116.941778,290.351812 C98.7386528,283.543218 89.5003718,263.273687 96.3089648,245.074468 C103.121465,226.871343 123.390997,217.644781 141.590215,224.453374 C159.789434,231.261968 169.019903,251.5315 162.211309,269.734624" id="Path" fill="#662D91"></path>
            <path d="M129.301153,225.324468 C116.301153,225.324468 104.039434,233.293218 99.2191218,246.164312 C96.2191218,254.191656 96.5199028,262.902593 100.070684,270.691656 C103.621465,278.492437 110.000372,284.441656 118.019903,287.441656 C126.051153,290.441656 134.758184,290.144781 142.558965,286.594 C150.359747,283.043218 156.301153,276.664312 159.308965,268.644781 C165.500372,252.074468 157.070684,233.554937 140.500372,227.363531 C136.808965,225.984624 133.019903,225.324468 129.301153,225.324468 Z M129.281622,295.703374 C124.750372,295.703374 120.219122,294.894781 115.848028,293.261968 C106.269903,289.672124 98.6605278,282.574468 94.4183408,273.273687 C90.1800588,263.961187 89.8206838,253.56275 93.4105278,243.992437 C100.801153,224.211187 122.910528,214.144781 142.680059,221.543218 C162.449591,228.941656 172.519903,251.043218 165.121465,270.81275 C161.539434,280.394781 154.441778,288.004156 145.129278,292.242437 C140.070684,294.554937 134.680059,295.703374 129.281622,295.703374" id="Shape" fill="#000000"></path>
            <path d="M154.758184,259.773687 C154.871465,259.394781 155.430059,259.492437 155.390997,259.883062 C155.390997,259.894781 155.390997,259.902593 155.390997,259.914312 C155.289434,260.961187 155.109747,262.004156 154.848028,263.023687 C154.340215,265.074468 153.551153,267.074468 152.469122,268.933843 C151.949591,269.844 151.379278,270.742437 150.769903,271.601812 L150.539434,271.933843 L150.308965,272.254156 C150.148809,272.461187 150.000372,272.683843 149.828497,272.883062 C149.660528,273.094 149.500372,273.304937 149.328497,273.511968 L148.820684,274.121343 C147.418341,275.734624 145.859747,277.211187 144.129278,278.492437 C143.918341,278.652593 143.691778,278.804937 143.469122,278.953374 L143.140997,279.183843 L142.801153,279.402593 C142.578497,279.554937 142.359747,279.703374 142.121465,279.832281 L141.769903,280.043218 C141.648809,280.113531 141.531622,280.183843 141.410528,280.242437 C140.461309,280.773687 139.469122,281.222906 138.461309,281.594 C137.449591,281.972906 136.410528,282.2815 135.371465,282.511968 C134.848028,282.633062 134.320684,282.734624 133.789434,282.824468 C133.531622,282.863531 133.269903,282.902593 133.000372,282.933843 L132.609747,282.984624 L132.211309,283.023687 C130.090215,283.242437 127.969122,283.222906 125.890997,283.004156 C124.848028,282.894781 123.808965,282.742437 122.789434,282.543218 C122.738653,282.5315 122.691778,282.523687 122.640997,282.511968 C122.250372,282.441656 122.308965,281.871343 122.699591,281.871343 C122.750372,281.883062 122.801153,281.883062 122.848028,281.883062 C123.879278,281.883062 124.910528,281.871343 125.930059,281.824468 C127.961309,281.742437 129.980841,281.543218 131.941778,281.172124 C133.898809,280.793218 135.820684,280.254156 137.629278,279.492437 C138.539434,279.113531 139.418341,278.683843 140.258184,278.191656 C141.098028,277.722906 141.930059,277.164312 142.719122,276.582281 C142.918341,276.433843 143.121465,276.2815 143.308965,276.133062 L143.898809,275.672124 C144.281622,275.363531 144.648809,275.043218 145.019903,274.711187 C145.769903,274.054937 146.469122,273.351812 147.148809,272.621343 C148.508184,271.172124 149.769903,269.601812 150.918341,267.941656 C152.058965,266.324468 153.000372,264.543218 153.769903,262.672124 C154.148809,261.734624 154.488653,260.761968 154.758184,259.773687" id="Path" fill="#4D226D"></path>
            <path d="M117.840215,243.461187 C108.848028,251.06275 106.140997,262.621343 105.191778,261.492437 C100.539434,256.004156 104.058965,245.394781 113.039434,237.793218 C122.019903,230.191656 133.058965,228.492437 137.711309,233.992437 C138.258184,234.633062 126.820684,235.871343 117.840215,243.461187" id="Path" fill="#8557A7"></path>
            <path d="M105.621465,258.152593 C105.500372,258.414312 105.129278,258.383062 105.051153,258.113531 C104.418341,256.113531 104.539434,253.644781 105.449591,250.914312 C106.840215,246.691656 109.890997,242.453374 114.019903,238.953374 C119.340215,234.441656 125.781622,231.914312 130.820684,232.332281 C132.008184,232.433843 133.090215,232.691656 134.039434,233.113531 C134.301153,233.234624 134.269903,233.613531 134.000372,233.691656 C129.910528,234.883062 122.890997,237.191656 116.848028,242.304937 C110.730841,247.492437 107.398809,254.422124 105.621465,258.152593" id="Path" fill="#A381BD"></path>
            <path d="M106.570684,253.324468 C106.461309,253.504156 106.168341,253.402593 106.211309,253.191656 C106.328497,252.594 106.500372,251.961187 106.711309,251.332281 C108.031622,247.344 110.930059,243.31275 114.879278,239.972906 C119.238653,236.2815 124.340215,233.972906 128.668341,233.652442 C128.890997,233.644781 128.961309,233.941656 128.750372,234.023687 C124.769903,235.511968 120.168341,237.754156 115.988653,241.293218 C111.578497,245.023687 108.590215,249.594 106.570684,253.324468" id="Path" fill="#C2ABD3"></path>
            <path d="M93.0003718,335.621343 C86.1917778,353.824468 65.9183408,363.054937 47.7191218,356.242437 C29.5199028,349.441656 20.2894338,329.164312 27.0980278,310.961187 C33.8988088,292.773687 54.1800588,283.543218 72.3714648,290.344 C90.5706838,297.152593 99.8011528,317.422124 93.0003718,335.621343" id="Path" fill="#662D91"></path>
            <path d="M60.0316218,291.203374 C55.5003718,291.203374 50.9886528,292.172124 46.7503718,294.101812 C38.9495908,297.652593 33.0081838,304.0315 30.0003718,312.054937 C27.0003718,320.082281 27.3011528,328.793218 30.8480278,336.594 C34.4105278,344.394781 40.7816218,350.332281 48.8089648,353.344 C56.8284968,356.344 65.5511528,356.043218 73.3402148,352.484624 C81.1409968,348.933843 87.0902148,342.56275 90.0902148,334.5315 C93.0902148,326.511968 92.7894338,317.793218 89.2386528,310.004156 C85.6917778,302.203374 79.3089648,296.254156 71.2894338,293.254156 C67.6292778,291.883062 63.8206838,291.203374 60.0316218,291.203374 Z M60.0589648,361.601812 C55.5394338,361.601812 51.0003718,360.7815 46.6292778,359.152593 C37.0511528,355.574468 29.4417778,348.472906 25.2113088,339.164312 C20.9691218,329.863531 20.6097468,319.461187 24.1917778,309.883062 C27.7699028,300.304937 34.8714648,292.691656 44.1800588,288.453374 C53.4808408,284.211187 63.8792778,283.851812 73.4613088,287.441656 C83.0394338,291.023687 90.6488088,298.121343 94.8909968,307.422124 C99.1292778,316.734624 99.4886528,327.133062 95.8988088,336.711187 C92.3206838,346.293218 85.2191218,353.894781 75.9105278,358.133062 C70.8480278,360.441656 65.4691218,361.601812 60.0589648,361.601812" id="Shape" fill="#000000"></path>
            <path d="M85.5394338,325.664312 C85.6488088,325.293218 86.2113088,325.383062 86.1683408,325.773687 C86.1683408,325.7815 86.1683408,325.793218 86.1683408,325.804937 C86.0784968,326.851812 85.8909968,327.894781 85.6292778,328.922124 C85.1214648,330.961187 84.3284968,332.961187 83.2581838,334.824468 C82.7308408,335.734624 82.1683408,336.633062 81.5589648,337.492437 L81.3284968,337.824468 L81.0902148,338.144781 C80.9300588,338.351812 80.7816218,338.574468 80.6097468,338.7815 C80.4495908,338.984624 80.2816218,339.191656 80.1097468,339.402593 L79.5980278,340.011968 C78.2113088,341.621343 76.6409968,343.113531 74.9105278,344.383062 C74.6995908,344.554937 74.4808408,344.691656 74.2581838,344.851812 L73.9300588,345.082281 L73.5902148,345.293218 C73.3597468,345.441656 73.1409968,345.594 72.8988088,345.734624 L72.5511528,345.941656 C72.4417778,346.011968 72.3089648,346.074468 72.1995908,346.144781 C71.2386528,346.664312 70.2503718,347.113531 69.2386528,347.492437 C68.2308408,347.863531 67.1995908,348.172124 66.1488088,348.402593 C65.6292778,348.523687 65.0980278,348.621343 64.5784968,348.711187 C64.3089648,348.754156 64.0511528,348.793218 63.7816218,348.824468 L63.3909968,348.883062 L62.9886528,348.922124 C60.8714648,349.133062 58.7503718,349.113531 56.6683408,348.894781 C55.6292778,348.7815 54.5980278,348.633062 53.5706838,348.433843 C53.5199028,348.422124 53.4691218,348.414312 53.4183408,348.402593 C53.0394338,348.332281 53.0902148,347.773687 53.4808408,347.773687 C53.5394338,347.773687 53.5902148,347.773687 53.6409968,347.773687 C54.6683408,347.773687 55.6917778,347.761968 56.7113088,347.711187 C58.7386528,347.633062 60.7581838,347.433843 62.7191218,347.06275 C64.6800588,346.683843 66.5980278,346.152593 68.4105278,345.383062 C69.3206838,345.004156 70.1995908,344.582281 71.0394338,344.094 C71.8909968,343.613531 72.7113088,343.054937 73.5003718,342.472906 C73.6995908,342.324468 73.8988088,342.183843 74.0980278,342.0315 L74.6800588,341.56275 C75.0589648,341.254156 75.4417778,340.933843 75.8089648,340.601812 C76.5511528,339.941656 77.2503718,339.242437 77.9417778,338.523687 C79.2894338,337.06275 80.5511528,335.492437 81.6995908,333.844 C82.8402148,332.222906 83.7894338,330.433843 84.5511528,328.56275 C84.9417778,327.621343 85.2699028,326.652593 85.5394338,325.664312" id="Path" fill="#4D226D"></path>
            <path d="M48.6214648,309.363531 C39.6409968,316.953374 36.9300588,328.511968 35.9691218,327.394781 C31.3284968,321.894781 34.8402148,311.2815 43.8206838,303.683843 C52.8011528,296.094 63.8480278,294.383062 68.5003718,299.883062 C69.0394338,300.523687 57.5980278,301.761968 48.6214648,309.363531" id="Path" fill="#8557A7"></path>
            <path d="M36.3988088,324.054937 C36.2816218,324.304937 35.9105278,324.273687 35.8284968,324.011968 C35.1995908,322.004156 35.3284968,319.5315 36.2308408,316.804937 C37.6214648,312.594 40.6683408,308.344 44.8011528,304.844 C50.1292778,300.344 56.5589648,297.804937 61.5980278,298.222906 C62.8011528,298.324468 63.8792778,298.594 64.8206838,299.011968 C65.0784968,299.121343 65.0511528,299.504156 64.7816218,299.582281 C60.6995908,300.773687 53.6800588,303.094 47.6409968,308.191656 C41.5081838,313.383062 38.1917778,320.31275 36.3988088,324.043218 C36.3988088,324.043218 36.3988088,324.054937 36.3988088,324.054937" id="Path" fill="#A381BD"></path>
            <path d="M37.3480278,319.211187 C37.2503718,319.402593 36.9613088,319.293218 37.0003718,319.082281 C37.1214648,318.484624 37.2816218,317.863531 37.4886528,317.222906 C38.8089648,313.234624 41.7113088,309.203374 45.6605278,305.863531 C50.0199028,302.172124 55.1214648,299.871343 59.4495908,299.543218 C59.6683408,299.5315 59.7386528,299.832281 59.5316218,299.914312 C55.5511528,301.402593 50.9613088,303.644781 46.7816218,307.183843 C42.3597468,310.914312 39.3714648,315.492437 37.3480278,319.211187" id="Path" fill="#C2ABD3"></path>
            <path d="M88.2113088,232.56275 C81.3988088,250.754156 61.1292778,259.992437 42.9300588,253.183843 C24.7308408,246.371343 15.5003718,226.101812 22.3089648,207.902593 C29.1097468,189.703374 49.3909968,180.472906 67.5784968,187.2815 C85.7816218,194.094 95.0199028,214.363531 88.2113088,232.56275" id="Path" fill="#662D91"></path>
            <path d="M55.2386528,188.144781 C50.7191218,188.144781 46.1995908,189.113531 41.9613088,191.043218 C34.1605278,194.594 28.2191218,200.961187 25.2113088,208.992437 C19.0199028,225.554937 27.4495908,244.074468 44.0199028,250.273687 C52.0394338,253.2815 60.7581838,252.972906 68.5511528,249.422124 C76.3480278,245.871343 82.3011528,239.492437 85.3011528,231.472906 C88.3011528,223.441656 88.0003718,214.734624 84.4495908,206.933843 C80.8988088,199.144781 74.5199028,193.191656 66.5003718,190.191656 C62.8402148,188.824468 59.0316218,188.144781 55.2386528,188.144781 Z M55.2699028,258.5315 C50.7503718,258.5315 46.2113088,257.722906 41.8402148,256.094 C22.0706838,248.691656 12.0003718,226.594 19.3988088,206.81275 C22.9808408,197.242437 30.0784968,189.633062 39.3909968,185.394781 C48.6917778,181.152593 59.0902148,180.793218 68.6683408,184.371343 C78.2503718,187.961187 85.8597468,195.054937 90.0980278,204.363531 C94.3402148,213.672124 94.6995908,224.074468 91.1097468,233.644781 C87.5316218,243.222906 80.4300588,250.832281 71.1292778,255.074468 C66.0589648,257.383062 60.6800588,258.5315 55.2699028,258.5315" id="Shape" fill="#000000"></path>
            <path d="M80.7581838,222.601812 C80.8597468,222.222906 81.4183408,222.324468 81.3909968,222.711187 C81.3909968,222.722906 81.3792778,222.734624 81.3792778,222.742437 C81.2894338,223.793218 81.0980278,224.832281 80.8480278,225.851812 C80.3284968,227.902593 79.5394338,229.902593 78.4691218,231.754156 C77.9417778,232.672124 77.3792778,233.56275 76.7699028,234.433843 L76.5394338,234.761968 L76.3011528,235.082281 C76.1409968,235.293218 75.9886528,235.511968 75.8206838,235.711187 C75.6605278,235.922124 75.4886528,236.133062 75.3284968,236.344 L74.8089648,236.953374 C73.4183408,238.56275 71.8480278,240.043218 70.1214648,241.324468 C69.9105278,241.484624 69.6917778,241.633062 69.4691218,241.7815 L69.1409968,242.011968 L68.8011528,242.234624 C68.5706838,242.383062 68.3480278,242.5315 68.1097468,242.664312 L67.7581838,242.871343 C67.6488088,242.941656 67.5316218,243.011968 67.4105278,243.074468 C66.4495908,243.594 65.4613088,244.054937 64.4495908,244.422124 C63.4417778,244.804937 62.4105278,245.113531 61.3597468,245.344 C60.8402148,245.461187 60.3089648,245.56275 59.7894338,245.652593 C59.5199028,245.691656 59.2581838,245.734624 59.0003718,245.761968 L58.5980278,245.81275 L58.1995908,245.851812 C56.0902148,246.074468 53.9691218,246.054937 51.8792778,245.832281 C50.8402148,245.722906 49.8089648,245.574468 48.7816218,245.371343 C48.7308408,245.363531 48.6800588,245.351812 48.6292778,245.344 C48.2503718,245.273687 48.3089648,244.703374 48.6995908,244.703374 C48.7503718,244.703374 48.8011528,244.711187 48.8480278,244.711187 C49.8792778,244.711187 50.8988088,244.703374 51.9183408,244.652593 C53.9613088,244.574468 55.9691218,244.371343 57.9300588,243.992437 C59.8988088,243.613531 61.8206838,243.082281 63.6292778,242.324468 C64.5316218,241.941656 65.4105278,241.511968 66.2581838,241.023687 C67.0980278,240.554937 67.9183408,239.992437 68.7191218,239.414312 C68.9105278,239.261968 69.1097468,239.113531 69.3089648,238.961187 L69.8909968,238.504156 C70.2699028,238.191656 70.6488088,237.863531 71.0199028,237.543218 C71.7581838,236.883062 72.4613088,236.172124 73.1488088,235.453374 C74.5081838,234.004156 75.7581838,232.433843 76.9105278,230.773687 C78.0589648,229.152593 79.0003718,227.371343 79.7581838,225.504156 C80.1488088,224.56275 80.4808408,223.594 80.7581838,222.601812" id="Path" fill="#4D226D"></path>
            <path d="M43.8284968,206.293218 C34.8480278,213.894781 32.1409968,225.453374 31.1917778,224.324468 C26.5394338,218.832281 30.0511528,208.211187 39.0316218,200.621343 C48.0081838,193.023687 59.0589648,191.324468 63.7113088,196.81275 C64.2503718,197.461187 52.8089648,198.703374 43.8284968,206.293218" id="Path" fill="#8557A7"></path>
            <path d="M31.6097468,220.992437 C31.4886528,221.242437 31.1292778,221.211187 31.0394338,220.941656 C30.4105278,218.941656 30.5394338,216.472906 31.4417778,213.742437 C32.8402148,209.523687 35.8792778,205.2815 40.0081838,201.7815 C45.3402148,197.273687 51.7816218,194.742437 56.8089648,195.164312 C58.0081838,195.261968 59.0902148,195.523687 60.0316218,195.941656 C60.2894338,196.06275 60.2699028,196.441656 59.9886528,196.523687 C55.9105278,197.711187 48.8909968,200.023687 42.8480278,205.133062 C36.7191218,210.31275 33.3988088,217.254156 31.6097468,220.984624 C31.6097468,220.984624 31.6097468,220.984624 31.6097468,220.992437" id="Path" fill="#A381BD"></path>
            <path d="M32.5589648,216.152593 C32.4613088,216.344 32.1683408,216.234624 32.2113088,216.023687 C32.3284968,215.422124 32.4886528,214.793218 32.6995908,214.152593 C34.0199028,210.172124 36.9183408,206.144781 40.8714648,202.804937 C45.2308408,199.113531 50.3284968,196.804937 54.6605278,196.484624 C54.8792778,196.461187 54.9495908,196.773687 54.7503718,196.851812 C50.7581838,198.344 46.1683408,200.582281 41.9886528,204.121343 C37.5706838,207.851812 34.5902148,212.422124 32.5589648,216.152593" id="Path" fill="#C2ABD3"></path>
            <path d="M119.129278,112.523687 C119.051153,125.894781 118.961309,139.254156 118.879278,152.613531 C120.340215,146.222906 125.238653,140.722906 131.430059,138.554937 C132.840215,152.683843 134.238653,166.81275 135.648809,180.933843 C139.121465,174.621343 142.590215,168.304937 146.058965,161.984624 C150.508184,180.0315 154.961309,198.082281 159.398809,216.133062 C162.410528,208.582281 165.410528,201.0315 168.410528,193.484624 C172.031622,205.574468 175.640997,217.664312 179.258184,229.742437 C190.371465,214.543218 199.121465,197.621343 205.098028,179.773687 C206.840215,187.074468 208.578497,194.383062 210.308965,201.691656 C215.539434,186.941656 220.769903,172.203374 226.000372,157.461187 C229.410528,166.492437 232.828497,175.523687 236.250372,184.554937 C241.379278,172.773687 245.730841,160.543218 247.488653,147.824468 C249.250372,135.101812 248.308965,121.804937 243.211309,110.011968 C235.758184,92.8049373 219.769903,80.0822813 201.941778,74.2736873 C184.340215,68.5315003 163.199591,68.7541563 144.988653,71.9143123 C125.121465,75.3518123 119.238653,94.9221243 119.129278,112.523687" id="Path" fill="#8CC63F"></path>
            <path d="M168.410528,189.953374 C168.469122,189.953374 168.519903,189.953374 168.570684,189.953374 C170.070684,190.023687 171.371465,191.0315 171.801153,192.472906 L180.551153,221.742437 C189.508184,208.394781 196.629278,193.922124 201.738653,178.644781 C202.250372,177.152593 203.660528,176.164312 205.250372,176.242437 C206.828497,176.31275 208.168341,177.414312 208.531622,178.953374 L210.980841,189.234624 L222.660528,156.2815 C223.160528,154.883062 224.480841,153.941656 225.961309,153.933843 C225.969122,153.933843 225.980841,153.933843 226.000372,153.933843 C227.461309,153.933843 228.781622,154.844 229.301153,156.211187 L236.390997,174.941656 C240.379278,164.691656 242.820684,155.773687 243.988653,147.344 C245.808965,134.144781 244.430059,121.711187 239.969122,111.414312 C233.340215,96.0822813 218.711309,83.4533743 200.840215,77.6330623 C180.258184,70.9143123 157.398809,73.3518123 145.598028,75.3947813 C125.820684,78.8244683 122.738653,100.144781 122.660528,112.554937 L122.488653,139.902593 C124.750372,137.844 127.390997,136.222906 130.258184,135.222906 C131.281622,134.863531 132.410528,134.992437 133.328497,135.574468 C134.238653,136.152593 134.840215,137.121343 134.941778,138.203374 L138.039434,169.242437 L142.961309,160.2815 C143.660528,159.004156 145.070684,158.293218 146.519903,158.484624 C147.961309,158.672124 149.140997,159.722906 149.488653,161.144781 L160.199591,204.574468 L160.219122,204.523687 L165.129278,192.183843 C165.668341,190.832281 166.969122,189.953374 168.410528,189.953374 Z M179.258184,233.2815 C179.058965,233.2815 178.859747,233.261968 178.660528,233.234624 C177.328497,233.004156 176.250372,232.043218 175.871465,230.761968 L167.941778,204.234624 L162.691778,217.433843 C162.121465,218.863531 160.719122,219.761968 159.160528,219.652593 C157.629278,219.554937 156.340215,218.461187 155.969122,216.972906 L144.789434,171.621343 L138.750372,182.633062 C138.000372,183.992437 136.461309,184.703374 134.941778,184.394781 C133.430059,184.094 132.289434,182.824468 132.129278,181.2815 L128.430059,144.133062 C125.410528,146.394781 123.160528,149.722906 122.328497,153.394781 C121.930059,155.152593 120.281622,156.332281 118.480841,156.121343 C116.680059,155.914312 115.340215,154.394781 115.347994,152.594 L115.590215,112.504156 C115.750372,87.6447813 126.238653,71.5744683 144.390997,68.4338433 C156.828497,66.2736873 181.000372,63.7229063 203.031622,70.9143123 C222.801153,77.3518123 239.031622,91.4416563 246.461309,108.613531 C251.430059,120.101812 252.988653,133.824468 250.988653,148.31275 C249.430059,159.574468 245.781622,171.5315 239.488653,185.961187 C238.910528,187.2815 237.558965,188.094 236.160528,188.082281 C234.730841,188.043218 233.449591,187.144781 232.941778,185.804937 L226.098028,167.734624 L213.648809,202.871343 C213.121465,204.344 211.719122,205.304937 210.129278,205.211187 C208.558965,205.133062 207.238653,204.0315 206.879278,202.504156 L204.359747,191.933843 C198.609747,206.082281 191.148809,219.461187 182.109747,231.832281 C181.441778,232.754156 180.371465,233.2815 179.258184,233.2815" id="Shape" fill="#000000"></path>
            <path d="M146.199591,90.2815003 C152.789434,87.1643123 160.308965,86.0744683 167.508184,87.1916563 C159.558965,92.2424373 153.160528,99.7033743 149.398809,108.332281 C153.719122,105.652593 158.031622,102.961187 162.340215,100.2815 C159.449591,110.711187 156.558965,121.144781 153.668341,131.574468 C160.121465,125.172124 165.531622,117.722906 169.609747,109.594 C167.488653,122.922124 168.090215,136.672124 171.328497,149.773687 C173.539434,140.902593 175.750372,132.023687 177.949591,123.152593 C176.390997,139.054937 176.379278,155.101812 177.918341,171.004156 C181.961309,154.203374 185.039434,137.172124 187.140997,120.023687 C192.211309,127.523687 196.680059,135.441656 200.480841,143.664312 C201.019903,133.523687 198.808965,123.242437 194.160528,114.211187 C202.609747,116.344 210.711309,119.863531 218.019903,124.601812 C211.051153,115.644781 201.781622,108.472906 191.359747,103.984624 C202.129278,102.961187 213.160528,104.793218 223.031622,109.242437 C215.410528,103.004156 206.980841,97.7541563 198.019903,93.6525933 C206.519903,92.8322813 215.211309,94.0940003 223.121465,97.2932183 C215.969122,92.2111873 209.090215,86.6525933 201.269903,82.6838433 C193.879278,78.9416563 185.180059,76.4846243 176.910528,78.2111873 C173.508184,78.9221243 169.988653,78.3947813 166.531622,78.9416563 C162.898809,79.5236873 159.359747,80.7033743 156.090215,82.4025933 C152.328497,84.3635313 148.930059,87.0236873 146.199591,90.2815003" id="Path" fill="#69952F"></path>
        </g>
    </g>
</svg>