<?xml version="1.0" encoding="UTF-8"?>
<svg width="355px" height="337px" viewBox="0 0 355 337" version="1.1" xmlns="http://www.w3.org/2000/svg" xmlns:xlink="http://www.w3.org/1999/xlink">
    <title>Group 13</title>
    <g id="Page-1" stroke="none" stroke-width="1" fill="none" fill-rule="evenodd">
        <g id="Group-13" transform="translate(0.9805, 0.2602)" fill-rule="nonzero">
            <path d="M111.03125,201.368743 C111.03125,201.368743 92.269531,89.6812426 178.269531,4.86093063 L196.039062,20.8179616 C196.039062,20.8179616 177.628906,102.001556 257.441406,145.778899 L237.371093,159.458587 C237.371093,159.458587 161.210937,98.9585866 172.609375,44.6890556 C172.609375,44.6890556 121.539062,100.759368 133.847656,192.810149 L111.03125,201.368743" id="Path" fill="#754C24"></path>
            <path d="M178.378906,8.91952463 C136.019531,51.7281176 120.691406,101.189056 115.308593,135.380462 C110.621093,165.169525 112.460937,188.681243 113.460937,197.310149 L130.628906,190.868743 C124.839843,143.739837 135.691406,106.298431 145.917969,83.0484306 C157.210937,57.3804616 169.898437,43.2906176 170.441406,42.7085866 C171.328125,41.7203056 172.769531,41.4585866 173.960937,42.0679616 C175.140625,42.6695246 175.769531,43.9898366 175.5,45.2906176 C165.519531,92.7593676 226.570312,146.560149 237.539062,155.778899 L251.878906,146.001556 C212.828125,122.970306 198.789062,90.7906176 193.929687,67.4781176 C189.320312,45.3999926 191.828125,27.4195246 192.828125,21.8999926 L178.378906,8.91952463 Z M111.03125,204.317962 C110.519531,204.317962 110.007812,204.181243 109.558593,203.919525 C108.789062,203.478118 108.269531,202.728118 108.121093,201.860931 C107.929687,200.700775 103.417969,173.021087 109.488281,134.470306 C115.089843,98.8804616 131.210937,47.1382746 176.199219,2.77108663 C177.308593,1.66952463 179.078125,1.63046163 180.238281,2.66952463 L198.007812,18.6304616 C198.800781,19.3492116 199.148437,20.4312426 198.910156,21.4781176 C198.871093,21.6695246 194.5,41.6304616 199.738281,66.5210866 C206.738281,99.7203056 226.628906,125.521087 258.847656,143.189056 C259.75,143.689056 260.328125,144.610931 260.378906,145.630462 C260.429687,146.661712 259.941406,147.630462 259.097656,148.208587 L239.03125,161.888275 C237.960937,162.618743 236.550781,162.567962 235.539062,161.759368 C234.75,161.138275 216.039062,146.181243 198.417969,124.271087 C178.039062,98.9117116 168.007812,75.5992116 168.5,54.7788986 C163.839843,61.3687426 157.269531,71.8296806 151.210937,85.6499926 C141.167969,108.548431 130.519531,145.661712 136.769531,192.419525 C136.949219,193.778899 136.167969,195.091399 134.890625,195.567962 L112.058593,204.130462 C111.730469,204.251556 111.378906,204.317962 111.03125,204.317962" id="Shape" fill="#000000"></path>
            <path d="M102.390625,59.8492116 C87.488281,63.9312426 74.820312,72.8492116 65.808593,85.4117116 C55.398437,99.9195246 51.847656,118.458587 41.570312,133.067962 C33.800781,144.118743 22.269531,152.470306 9.347656,156.419525 C37.167969,161.411712 65.988281,166.239837 93.398437,159.368743 C114.640625,154.048431 134.347656,141.290618 145.980469,122.739837 C153.75,110.349212 157.558593,95.3804616 156.410156,80.7788986 C155.980469,75.3413986 155.269531,65.2984306 151.140625,61.2085866 C147.230469,57.3296806 138.429687,56.6187426 133.378906,56.1890556 C126,55.5601486 111.78125,57.2788986 102.390625,59.8492116" id="Path" fill="#8CC63F"></path>
            <path d="M17.597656,155.649993 C41.558593,159.841399 67.910156,163.489837 92.871093,157.239837 C114.648437,151.778899 133.328125,138.778899 144.109375,121.567962 C151.730469,109.419525 155.320312,94.9898366 154.210937,80.9507746 L154.191406,80.6382746 C153.789062,75.5992116 153.058593,66.2203056 149.589843,62.7710866 C146.289062,59.5015556 137.878906,58.7788986 133.371093,58.3999926 L133.191406,58.3804616 C126.121093,57.7788986 112.28125,59.4195246 102.96875,61.9703056 C88.621093,65.9117116 76.390625,74.4507746 67.597656,86.6890556 C62.480469,93.8179616 58.960937,102.208587 55.558593,110.317962 C52.128906,118.478118 48.589843,126.911712 43.371093,134.329681 C36.847656,143.599212 27.878906,150.989837 17.597656,155.649993 Z M63.53125,165.001556 C44.730469,165.001556 26.109375,161.661712 8.96875,158.591399 L-2.27373675e-13,156.989837 L8.710937,154.317962 C21.21875,150.489837 32.25,142.501556 39.769531,131.798431 C44.71875,124.771087 48.160156,116.560149 51.5,108.618743 C55,100.278899 58.621093,91.6617116 64.03125,84.1187426 C73.398437,71.0601486 86.46875,61.9312426 101.808593,57.7281176 C111.53125,55.0679616 126.070312,53.3609306 133.570312,54.0015556 L133.738281,54.0093676 C139.167969,54.4781176 148.25,55.2515556 152.691406,59.6499926 C157.320312,64.2398366 158.109375,74.2906176 158.578125,80.2984306 L158.597656,80.6109306 C159.78125,95.5796806 155.960937,110.958587 147.839843,123.911712 C136.460937,142.067962 116.808593,155.771087 93.941406,161.501556 C83.890625,164.021087 73.679687,165.001556 63.53125,165.001556" id="Shape" fill="#000000"></path>
            <path d="M152.5,62.3882746 C148.507812,66.5484306 144.789062,71.1617116 141.140625,75.7984306 C137.5,80.4507746 133.941406,85.1890556 130.390625,89.9507746 C126.828125,94.7007746 123.308593,99.4898366 119.660156,104.200775 C117.839843,106.540618 115.929687,108.931243 113.808593,111.091399 C111.710937,113.251556 109.519531,115.298431 107.269531,117.259368 C102.769531,121.189056 98.089843,124.888275 93.269531,128.399993 C88.449219,131.888275 83.53125,135.271087 78.320312,138.200775 C73.109375,141.099212 67.648437,143.567962 62.019531,145.501556 C56.390625,147.411712 50.550781,148.817962 44.609375,149.169525 C50.53125,148.638275 56.300781,147.067962 61.839843,145.001556 C67.378906,142.919525 72.71875,140.310149 77.789062,137.278899 C82.847656,134.239837 87.648437,130.759368 92.339843,127.161712 C97.019531,123.540618 101.570312,119.739837 105.910156,115.751556 C108.070312,113.751556 110.160156,111.669525 112.140625,109.521087 C113.140625,108.450775 114.070312,107.341399 114.96875,106.200775 C115.859375,105.040618 116.738281,103.860931 117.597656,102.661712 C121.058593,97.8687426 124.417969,92.9703056 127.808593,88.0913986 C131.199219,83.2085866 134.597656,78.3296806 138.121093,73.5093676 C141.640625,68.7007746 145.230469,63.9195246 149.300781,59.3687426 L152.5,62.3882746" id="Path" fill="#000000"></path>
            <path d="M220.949219,256.958587 C220.949219,298.439056 187.328125,332.060149 145.859375,332.060149 C104.390625,332.060149 70.769531,298.439056 70.769531,256.958587 C70.769531,215.489837 104.390625,181.868743 145.859375,181.868743 C187.328125,181.868743 220.949219,215.489837 220.949219,256.958587" id="Path" fill="#C1272D"></path>
            <path d="M145.859375,186.388275 C106.941406,186.388275 75.28125,218.048431 75.28125,256.958587 C75.28125,295.880462 106.941406,327.540618 145.859375,327.540618 C184.78125,327.540618 216.441406,295.880462 216.441406,256.958587 C216.441406,218.048431 184.78125,186.388275 145.859375,186.388275 Z M145.859375,336.567962 C101.960937,336.567962 66.25,300.860931 66.25,256.958587 C66.25,213.067962 101.960937,177.349212 145.859375,177.349212 C189.757812,177.349212 225.46875,213.067962 225.46875,256.958587 C225.46875,300.860931 189.757812,336.567962 145.859375,336.567962" id="Shape" fill="#000000"></path>
            <path d="M130.109375,239.450775 C94.347656,275.208587 125.847656,323.189056 101.558593,298.888275 C77.257812,274.591399 77.257812,235.200775 101.558593,210.899993 C125.847656,186.599212 165.25,186.599212 189.550781,210.899993 C213.847656,235.200775 164.570312,204.989837 130.109375,239.450775" id="Path" fill="#CD5257"></path>
            <path d="M103.140625,262.329681 C101.960937,266.317962 96.160156,265.868743 95.597656,261.751556 C93.550781,246.649993 98.308593,230.810149 109.890625,219.228118 C119.410156,209.700775 132.078125,204.458587 145.550781,204.458587 C148.179687,204.458587 150.78125,204.661712 153.328125,205.048431 C157.449219,205.681243 157.789062,211.509368 153.769531,212.599212 C143.210937,215.450775 132.007812,220.888275 121.78125,231.118743 C111.71875,241.181243 106.160156,252.079681 103.140625,262.329681" id="Path" fill="#DA7D81"></path>
            <path d="M201.007812,259.618743 C202.191406,255.630462 207.980469,256.079681 208.550781,260.200775 C210.597656,275.290618 205.828125,291.138275 194.257812,302.720306 C184.730469,312.239837 172.058593,317.489837 158.589843,317.489837 C155.960937,317.489837 153.359375,317.290618 150.808593,316.899993 C146.699219,316.271087 146.347656,310.439056 150.371093,309.349212 C160.941406,306.501556 172.140625,301.048431 182.371093,290.817962 C192.429687,280.759368 197.988281,269.868743 201.007812,259.618743" id="Path" fill="#911D22"></path>
            <path d="M348.640625,204.458587 C348.640625,245.931243 315.019531,279.548431 273.550781,279.548431 C232.078125,279.548431 198.460937,245.931243 198.460937,204.458587 C198.460937,162.978118 232.078125,129.360931 273.550781,129.360931 C315.019531,129.360931 348.640625,162.978118 348.640625,204.458587" id="Path" fill="#C1272D"></path>
            <path d="M273.550781,133.880462 C234.628906,133.880462 202.96875,165.540618 202.96875,204.458587 C202.96875,243.368743 234.628906,275.028899 273.550781,275.028899 C312.46875,275.028899 344.128906,243.368743 344.128906,204.458587 C344.128906,165.540618 312.46875,133.880462 273.550781,133.880462 Z M273.550781,284.060149 C229.648437,284.060149 193.941406,248.349212 193.941406,204.458587 C193.941406,160.560149 229.648437,124.849212 273.550781,124.849212 C317.449219,124.849212 353.160156,160.560149 353.160156,204.458587 C353.160156,248.349212 317.449219,284.060149 273.550781,284.060149" id="Shape" fill="#000000"></path>
            <path d="M257.800781,186.950775 C222.039062,222.700775 253.539062,270.681243 229.238281,246.380462 C204.949219,222.091399 204.949219,182.689056 229.238281,158.388275 C253.539062,134.091399 292.941406,134.091399 317.238281,158.388275 C341.539062,182.689056 292.257812,152.478118 257.800781,186.950775" id="Path" fill="#CD5257"></path>
            <path d="M230.820312,209.817962 C229.648437,213.810149 223.847656,213.360931 223.289062,209.239837 C221.238281,194.149993 226,178.298431 237.578125,166.720306 C247.097656,157.200775 259.769531,151.950775 273.238281,151.950775 C275.871093,151.950775 278.46875,152.149993 281.019531,152.540618 C285.140625,153.169525 285.480469,159.001556 281.460937,160.091399 C270.898437,162.939056 259.699219,168.388275 249.46875,178.618743 C239.410156,188.681243 233.847656,199.567962 230.820312,209.817962" id="Path" fill="#DA7D81"></path>
            <path d="M328.699219,207.110931 C329.878906,203.118743 335.667969,203.567962 336.230469,207.689056 C338.289062,222.790618 333.519531,238.630462 321.949219,250.208587 C312.417969,259.739837 299.75,264.978118 286.28125,264.978118 C283.648437,264.978118 281.050781,264.778899 278.5,264.388275 C274.390625,263.759368 274.039062,257.931243 278.058593,256.841399 C288.628906,253.989837 299.828125,248.548431 310.058593,238.317962 C320.121093,228.259368 325.679687,217.360931 328.699219,207.110931" id="Path" fill="#911D22"></path>
            <path d="M196.769531,19.5913986 C194.167969,23.1187426 187.75,22.8101486 182.441406,18.8999926 C177.128906,14.9781176 174.929687,8.95077463 177.53125,5.41952463 C180.128906,1.88046163 186.550781,2.18905563 191.859375,6.11093063 C197.167969,10.0210866 199.371093,16.0484306 196.769531,19.5913986" id="Path" fill="#754C24"></path>
            <path d="M183.191406,5.88827463 C181.691406,5.88827463 180.507812,6.34139863 179.898437,7.16171163 C178.5,9.06796163 179.917969,13.3804616 184.191406,16.5288986 C188.460937,19.6695246 193,19.7398366 194.398437,17.8413986 C195.800781,15.9390556 194.390625,11.6187426 190.121093,8.47811763 C187.679687,6.68905563 185.160156,5.88827463 183.191406,5.88827463 Z M191.128906,25.0015556 C187.800781,25.0015556 184.070312,23.7593676 180.691406,21.2710866 C173.96875,16.3179616 171.539062,8.59139863 175.160156,3.66952463 C178.78125,-1.24844437 186.890625,-1.22110137 193.609375,3.73983663 C200.328125,8.68905563 202.757812,16.4195246 199.140625,21.3296806 C197.339843,23.7788986 194.429687,25.0015556 191.128906,25.0015556" id="Shape" fill="#000000"></path>
        </g>
    </g>
</svg>