<?xml version="1.0" encoding="UTF-8"?>
<svg width="286px" height="296px" viewBox="0 0 286 296" version="1.1" xmlns="http://www.w3.org/2000/svg" xmlns:xlink="http://www.w3.org/1999/xlink">
    <title>Group</title>
    <g id="Page-1" stroke="none" stroke-width="1" fill="none" fill-rule="evenodd">
        <g id="Group" transform="translate(0.6992, 0.171)" fill-rule="nonzero">
            <path d="M156.90625,97.1806091 C141.46875,96.5477971 127.125,90.7001411 115.527343,80.4892031 C102.121093,68.6884221 94.503906,51.4071721 81.210937,39.4774851 C71.15625,30.4579531 58.046875,24.8993591 44.574219,23.9501411 C70.5625,12.8485781 97.566406,1.6806091 125.816406,2.2196721 C147.703125,2.6376411 169.78125,10.6493591 185.269531,26.1102971 C195.625,36.4501411 202.691406,50.1806091 204.851562,64.6688911 C205.65625,70.0673281 207.210937,80.0087351 204.105469,84.9188911 C201.164062,89.5790471 192.746093,92.2509221 187.929687,93.7977971 C180.875,96.0673281 166.632812,97.5790471 156.90625,97.1806091" id="Path" fill="#8CC63F"></path>
            <path d="M156.996093,94.9892031 C166.644531,95.3798281 180.5,93.8798281 187.253906,91.7001411 L187.410156,91.6493591 C191.726562,90.2587351 199.761719,87.6806091 202.242187,83.7509221 C204.855469,79.6102971 203.464843,70.2977971 202.71875,65.2977971 L202.671875,65.0009221 C200.597656,51.0595161 193.867187,37.8095161 183.714843,27.6688911 C169.347656,13.3290471 148.230469,4.8485781 125.777343,4.4188911 C100.03125,3.9188911 75.191406,13.3993591 52.78125,22.8485781 C63.84375,25.0907661 74.246093,30.2704531 82.679687,37.8407661 C89.433593,43.8993591 94.777343,51.3290471 99.945312,58.5087351 C105.082031,65.6493591 110.394531,73.0399851 116.984375,78.8407661 C128.289062,88.7899851 142.125,94.3681091 156.996093,94.9892031 Z M160.175781,99.4501411 C159.011719,99.4501411 157.890625,99.4306091 156.816406,99.3798281 C140.925781,98.7274851 126.144531,92.7704531 114.074219,82.1376411 C107.113281,76.0087351 101.652343,68.4188911 96.371093,61.0790471 C91.339843,54.0907661 86.136719,46.8602971 79.738281,41.1181091 C70.007812,32.3876411 57.460937,27.0673281 44.417969,26.1376411 L35.328125,25.5009221 L43.707031,21.9188911 C68.378906,11.3876411 96.347656,-0.561577896 125.859375,0.0204531043 C149.441406,0.469672104 171.660156,9.4071721 186.824219,24.5595161 C197.640625,35.3485781 204.816406,49.4892031 207.027343,64.3485781 L207.074219,64.6493591 C207.960937,70.6102971 209.449219,80.5790471 205.964843,86.0985781 C202.628906,91.3798281 193.949219,94.1688911 188.761719,95.8407661 L188.605469,95.8876411 C182.207031,97.9501411 169.90625,99.4501411 160.175781,99.4501411" id="Shape" fill="#000000"></path>
            <path d="M202.734375,87.1298281 C197.738281,83.6102971 193.175781,79.7587351 188.65625,75.8602971 C184.152343,71.9501411 179.738281,67.9579531 175.339843,63.9579531 C170.941406,59.9696721 166.574219,55.9384221 162.128906,52.0477971 C161.015625,51.0790471 159.894531,50.1298281 158.765625,49.1884221 C157.628906,48.2899851 156.476562,47.4188911 155.265625,46.5907661 C152.855469,44.9384221 150.351562,43.3876411 147.792969,41.9188911 C142.667969,39.0009221 137.386719,36.3173281 132.011719,33.8485781 C126.632812,31.3876411 121.175781,29.0673281 115.558593,27.2509221 C109.941406,25.4306091 104.152343,24.0907661 98.285156,23.2977971 C92.425781,22.5282661 86.449219,22.2899851 80.558593,23.1102971 C86.421875,22.1181091 92.429687,22.1806091 98.347656,22.7782661 C104.273437,23.3876411 110.140625,24.5673281 115.867187,26.2392031 C121.605469,27.9188911 127.160156,30.0985781 132.640625,32.4384221 C138.121093,34.7704531 143.511719,37.3173281 148.785156,40.1376411 C151.417969,41.5477971 154.011719,43.0595161 156.542969,44.6884221 C159.089843,46.3173281 161.488281,48.2196721 163.78125,50.0907661 C168.40625,53.8681091 172.90625,57.7392031 177.4375,61.5673281 C181.964843,65.4071721 186.496093,69.2274851 191.089843,72.9501411 C195.683593,76.6493591 200.351562,80.3095161 205.171875,83.4696721 L202.734375,87.1298281" id="Path" fill="#000000"></path>
            <path d="M251.378906,167.649359 C251.378906,235.817328 196.117187,291.079047 127.949219,291.079047 C59.777343,291.079047 4.515625,235.817328 4.515625,167.649359 C4.515625,99.4774851 59.777343,44.2079531 127.949219,44.2079531 C196.117187,44.2079531 251.378906,99.4774851 251.378906,167.649359" id="Path" fill="#F7931E"></path>
            <path d="M127.949219,48.7274851 C62.375,48.7274851 9.03125,102.079047 9.03125,167.649359 C9.03125,233.219672 62.375,286.559516 127.949219,286.559516 C193.519531,286.559516 246.863281,233.219672 246.863281,167.649359 C246.863281,102.079047 193.519531,48.7274851 127.949219,48.7274851 Z M127.949219,295.590766 C57.398437,295.590766 -2.84217094e-14,238.200141 -2.84217094e-14,167.649359 C-2.84217094e-14,97.0907661 57.398437,39.7001411 127.949219,39.7001411 C198.5,39.7001411 255.898437,97.0907661 255.898437,167.649359 C255.898437,238.200141 198.5,295.590766 127.949219,295.590766" id="Shape" fill="#000000"></path>
            <path d="M230.054687,139.938422 C229.910156,138.329047 232.222656,137.887641 232.652343,139.450141 C232.664062,139.489203 232.671875,139.539985 232.6875,139.579047 C233.832031,143.758735 234.617187,148.059516 235.113281,152.399359 C236.082031,161.067328 235.914062,169.930609 234.453125,178.680609 C233.742187,182.969672 232.859375,187.258735 231.746093,191.489203 L231.335937,193.079047 L230.886719,194.657172 C230.574219,195.719672 230.308593,196.778266 229.953125,197.817328 C229.613281,198.860297 229.285156,199.907172 228.929687,200.950141 L227.832031,204.059516 C224.769531,212.317328 220.859375,220.317328 216.007812,227.750922 C215.433593,228.700141 214.777343,229.598578 214.148437,230.508735 L213.199219,231.879828 L212.207031,233.207953 C211.539062,234.098578 210.898437,235.000922 210.183593,235.868109 L209.128906,237.188422 C208.78125,237.637641 208.40625,238.047797 208.042969,238.477485 C205.105469,241.887641 201.933593,245.059516 198.570312,247.989203 C195.1875,250.887641 191.652343,253.598578 187.933593,256.008735 C186.074219,257.207953 184.199219,258.379828 182.285156,259.469672 C181.324219,260.020453 180.363281,260.559516 179.386719,261.059516 L177.929687,261.829047 L176.453125,262.567328 C168.570312,266.469672 160.335937,269.438422 151.957031,271.618109 C147.765625,272.700141 143.546875,273.610297 139.304687,274.329047 C139.09375,274.368109 138.882812,274.407172 138.671875,274.438422 C137.082031,274.707953 136.488281,272.438422 138,271.887641 C138.199219,271.809516 138.394531,271.739203 138.59375,271.668891 C142.578125,270.188422 146.523437,268.657172 150.398437,267.008735 C158.15625,263.739203 165.664062,260.059516 172.722656,255.758735 C179.757812,251.450141 186.421875,246.618109 192.320312,241.039985 C195.28125,238.270453 198.066406,235.329047 200.617187,232.219672 C203.183593,229.157172 205.550781,225.797797 207.796875,222.399359 C208.34375,221.539985 208.914062,220.688422 209.449219,219.817328 L211.03125,217.200141 C212.046875,215.430609 213.042969,213.637641 213.992187,211.829047 C215.914062,208.207953 217.613281,204.477485 219.230469,200.688422 C222.371093,193.090766 224.964843,185.200141 227.023437,177.118109 C229.089843,169.200141 230.15625,160.938422 230.410156,152.598578 C230.527343,148.387641 230.429687,144.168891 230.054687,139.938422" id="Path" fill="#B96E16"></path>
            <path d="M63.566406,130.297797 C39.8125,172.688422 46.046875,221.340766 40.742187,218.368109 C14.800781,203.840766 13.027343,157.688422 36.777343,115.289985 C60.53125,72.8993591 100.820312,50.3095161 126.761719,64.8485781 C129.796875,66.5477971 87.316406,87.8993591 63.566406,130.297797" id="Path" fill="#F9A94B"></path>
            <path d="M37.558593,204.829047 C37.457031,205.977485 36.003906,206.407172 35.292969,205.500922 C29.949219,198.657172 26.859375,188.907172 26.402343,177.039985 C25.699219,158.707953 31.328125,137.868109 42.261719,118.360297 C56.347656,93.2196721 77.585937,74.0790471 97.683593,68.4188911 C102.449219,67.0673281 107.019531,66.5399851 111.277343,66.7977971 C112.453125,66.8681091 112.894531,68.3681091 111.953125,69.0790471 C97.867187,79.5907661 74.0625,98.7079531 58.082031,127.227485 C41.875,156.149359 39.070312,187.797797 37.5625,204.797797 C37.5625,204.809516 37.5625,204.817328 37.558593,204.829047" id="Path" fill="#FABE78"></path>
            <path d="M34.222656,184.739203 C34.097656,185.618109 32.824219,185.629828 32.679687,184.750922 C32.265625,182.250922 32.003906,179.598578 31.898437,176.829047 C31.230469,159.489203 36.613281,139.688422 47.054687,121.047797 C58.589843,100.469672 74.984375,84.1571721 91.28125,76.6493591 C92.101562,76.2704531 92.808593,77.3485781 92.128906,77.9384221 C78.882812,89.4892031 64.34375,104.809516 53.285156,124.539985 C41.613281,145.368109 36.667969,167.399359 34.222656,184.739203" id="Path" fill="#FCD4A5"></path>
            <path d="M188.976562,117.477485 C189.09375,132.930609 194.460937,147.457953 204.277343,159.387641 C215.625,173.188422 232.628906,181.379828 244.109375,195.067328 C252.792969,205.418891 257.90625,218.700141 258.40625,232.200141 C270.367187,206.598578 282.441406,179.989203 282.847656,151.727485 C283.160156,129.840766 275.894531,107.508735 260.953125,91.5087351 C250.96875,80.8173281 237.484375,73.2899851 223.074219,70.6493591 C217.710937,69.6688911 207.828125,67.7782661 202.8125,70.7196721 C198.0625,73.5009221 195.113281,81.8173281 193.398437,86.5907661 C190.890625,93.5595161 188.902343,107.750922 188.976562,117.477485" id="Path" fill="#8CC63F"></path>
            <path d="M210.480469,71.3407661 C207.902343,71.3407661 205.542969,71.6688911 203.921875,72.6181091 C199.914062,74.9696721 197.058593,82.9071721 195.527343,87.1806091 L195.46875,87.3290471 C193.070312,94.0087351 191.105469,107.809516 191.175781,117.457953 C191.289062,132.348578 196.40625,146.360297 205.976562,158.000922 C211.554687,164.778266 218.753906,170.329047 225.71875,175.707953 C232.722656,181.110297 239.964843,186.700141 245.796875,193.649359 C253.082031,202.340766 257.910156,212.899359 259.78125,224.039985 C269.980469,201.957953 280.277343,177.430609 280.644531,151.700141 C280.964843,129.239203 273.203125,107.848578 259.347656,93.0087351 C249.558593,82.5282661 236.535156,75.3602971 222.679687,72.8173281 L222.375,72.7587351 C219.308593,72.2001411 214.617187,71.3407661 210.480469,71.3407661 Z M256.546875,241.387641 L256.207031,232.289985 C255.722656,219.219672 250.828125,206.500922 242.425781,196.477485 C236.898437,189.887641 229.847656,184.450141 223.027343,179.188422 C215.871093,173.668891 208.46875,167.957953 202.574219,160.789985 C192.359375,148.368109 186.894531,133.399359 186.773437,117.500922 C186.699219,107.418891 188.78125,92.9188911 191.328125,85.8407661 L191.382812,85.6884221 C193.226562,80.5595161 196.3125,71.9774851 201.699219,68.8173281 C207.328125,65.5204531 217.246093,67.3407661 223.171875,68.4306091 L223.472656,68.4892031 C238.253906,71.2001411 252.136719,78.8407661 262.5625,90.0087351 C277.191406,105.668891 285.382812,128.180609 285.046875,151.758735 C284.625,181.289985 271.753906,208.829047 260.402343,233.137641 L256.546875,241.387641" id="Shape" fill="#000000"></path>
            <path d="M204.300781,69.7001411 C207.296875,74.6298281 210.792969,79.4071721 214.339843,84.1298281 C217.902343,88.8407661 221.570312,93.5009221 225.253906,98.1493591 C228.933593,102.809516 232.65625,107.438422 236.273437,112.188422 C238.070312,114.539985 239.886719,117.000922 241.425781,119.598578 C242.976562,122.188422 244.394531,124.829047 245.714843,127.508735 C248.355469,132.868109 250.722656,138.348578 252.875,143.899359 C255.019531,149.457953 257.019531,155.079047 258.503906,160.868109 C259.980469,166.649359 260.960937,172.559516 261.378906,178.500922 C261.78125,184.430609 261.636719,190.438422 260.453125,196.258735 C261.464843,190.407172 261.425781,184.430609 260.855469,178.539985 C260.265625,172.649359 259.117187,166.817328 257.488281,161.149359 C255.855469,155.469672 253.722656,149.938422 251.4375,144.477485 C249.148437,139.028266 246.648437,133.657172 243.898437,128.438422 C242.523437,125.829047 241.054687,123.278266 239.484375,120.809516 C238.699219,119.579047 237.867187,118.387641 237.003906,117.227485 C236.105469,116.067328 235.191406,114.918891 234.253906,113.770453 C230.515625,109.200141 226.636719,104.700141 222.796875,100.168891 C218.949219,95.6376411 215.113281,91.0985781 211.355469,86.4579531 C207.605469,81.8173281 203.914062,77.1298281 200.558593,72.0204531 L204.300781,69.7001411" id="Path" fill="#000000"></path>
        </g>
    </g>
</svg>